<svg width="76" height="76" fill="none" xmlns="http://www.w3.org/2000/svg"><path d="M38 12.16c14.288 0 25.84 11.552 25.84 25.84S52.288 63.84 38 63.84 12.16 52.288 12.16 38 23.712 12.16 38 12.16zm0 48.64c12.616 0 22.8-10.184 22.8-22.8 0-12.616-10.184-22.8-22.8-22.8-12.616 0-22.8 10.184-22.8 22.8 0 12.616 10.184 22.8 22.8 22.8z" fill="#728FCE"/><path d="M37.544 23.256 52.288 38 37.544 52.744l-2.128-2.128L48.032 38 35.416 25.384l2.128-2.128z" fill="#728FCE"/><path d="M50.16 39.52H24.32v-3.04h25.84v3.04z" fill="#728FCE"/></svg>