<svg width="76" height="76" fill="none" xmlns="http://www.w3.org/2000/svg"><path d="M38 63.84c-14.288 0-25.84-11.552-25.84-25.84S23.712 12.16 38 12.16 63.84 23.712 63.84 38 52.288 63.84 38 63.84zm0-48.64c-12.616 0-22.8 10.184-22.8 22.8 0 12.616 10.184 22.8 22.8 22.8 12.616 0 22.8-10.184 22.8-22.8 0-12.616-10.184-22.8-22.8-22.8z" fill="#728FCE"/><path d="M38.456 52.744 23.712 38l14.744-14.744 2.128 2.128L27.968 38l12.616 12.616-2.128 2.128z" fill="#728FCE"/><path d="M25.84 36.48h25.84v3.04H25.84v-3.04z" fill="#728FCE"/></svg>