<svg width="22" height="22" viewBox="0 0 22 22" fill="none" xmlns="http://www.w3.org/2000/svg">
<path fill-rule="evenodd" clip-rule="evenodd" d="M6.41683 1.83337C5.20125 1.83337 4.03547 2.31626 3.17592 3.1758C2.31638 4.03534 1.8335 5.20113 1.8335 6.41671V15.5834C1.8335 16.799 2.31638 17.9647 3.17592 18.8243C4.03547 19.6838 5.20125 20.1667 6.41683 20.1667H15.5835C16.7991 20.1667 17.9649 19.6838 18.8244 18.8243C19.6839 17.9647 20.1668 16.799 20.1668 15.5834V6.41671C20.1668 5.20113 19.6839 4.03534 18.8244 3.1758C17.9649 2.31626 16.7991 1.83337 15.5835 1.83337H6.41683ZM14.4193 9.79371C14.5017 9.70583 14.5659 9.6026 14.6083 9.4899C14.6508 9.3772 14.6706 9.25725 14.6667 9.13689C14.6628 9.01653 14.6352 8.89812 14.5855 8.78842C14.5358 8.67872 14.465 8.57988 14.3772 8.49754C14.2893 8.4152 14.1861 8.35098 14.0734 8.30854C13.9607 8.26609 13.8407 8.24626 13.7203 8.25018C13.6 8.25409 13.4816 8.28168 13.3719 8.33136C13.2622 8.38103 13.1633 8.45183 13.081 8.53971L10.2549 11.5555L8.85883 10.3153C8.67592 10.1632 8.44106 10.0882 8.20387 10.1061C7.96668 10.124 7.74574 10.2334 7.58771 10.4112C7.42968 10.589 7.34695 10.8212 7.35698 11.0589C7.36702 11.2965 7.46904 11.521 7.6415 11.6848L9.704 13.5181C9.88246 13.6767 10.1157 13.7593 10.3542 13.7485C10.5926 13.7377 10.8175 13.6344 10.9809 13.4604L14.4193 9.79371Z" fill="#728FCE"/>
</svg>
