<svg width="18" height="19" viewBox="0 0 18 19" fill="none" xmlns="http://www.w3.org/2000/svg">
<path d="M9 1.625C11.0886 1.625 13.0916 2.45469 14.5685 3.93153C16.0453 5.40838 16.875 7.41142 16.875 9.5C16.875 11.5886 16.0453 13.5916 14.5685 15.0685C13.0916 16.5453 11.0886 17.375 9 17.375C6.91142 17.375 4.90838 16.5453 3.43153 15.0685C1.95469 13.5916 1.125 11.5886 1.125 9.5C1.125 7.41142 1.95469 5.40838 3.43153 3.93153C4.90838 2.45469 6.91142 1.625 9 1.625ZM9 8.54488L7.17075 6.71563C7.04409 6.58897 6.87231 6.51781 6.69319 6.51781C6.51407 6.51781 6.34228 6.58897 6.21563 6.71563C6.08897 6.84228 6.01781 7.01407 6.01781 7.19319C6.01781 7.37231 6.08897 7.54409 6.21563 7.67075L8.04488 9.5L6.21563 11.3293C6.15291 11.392 6.10316 11.4664 6.06922 11.5484C6.03528 11.6303 6.01781 11.7181 6.01781 11.8068C6.01781 11.8955 6.03528 11.9833 6.06922 12.0653C6.10316 12.1472 6.15291 12.2217 6.21563 12.2844C6.27834 12.3471 6.35279 12.3968 6.43473 12.4308C6.51667 12.4647 6.6045 12.4822 6.69319 12.4822C6.78188 12.4822 6.8697 12.4647 6.95164 12.4308C7.03358 12.3968 7.10804 12.3471 7.17075 12.2844L9 10.4551L10.8293 12.2844C10.892 12.3471 10.9664 12.3968 11.0484 12.4308C11.1303 12.4647 11.2181 12.4822 11.3068 12.4822C11.3955 12.4822 11.4833 12.4647 11.5653 12.4308C11.6472 12.3968 11.7217 12.3471 11.7844 12.2844C11.8471 12.2217 11.8968 12.1472 11.9308 12.0653C11.9647 11.9833 11.9822 11.8955 11.9822 11.8068C11.9822 11.7181 11.9647 11.6303 11.9308 11.5484C11.8968 11.4664 11.8471 11.392 11.7844 11.3293L9.95512 9.5L11.7844 7.67075C11.8471 7.60804 11.8968 7.53358 11.9308 7.45164C11.9647 7.3697 11.9822 7.28188 11.9822 7.19319C11.9822 7.1045 11.9647 7.01667 11.9308 6.93473C11.8968 6.85279 11.8471 6.77834 11.7844 6.71563C11.7217 6.65291 11.6472 6.60316 11.5653 6.56922C11.4833 6.53528 11.3955 6.51781 11.3068 6.51781C11.2181 6.51781 11.1303 6.53528 11.0484 6.56922C10.9664 6.60316 10.892 6.65291 10.8293 6.71563L9 8.54488Z" fill="#C4C4C4"/>
</svg>
