<svg width="120" height="119" viewBox="0 0 120 119" fill="none" xmlns="http://www.w3.org/2000/svg">
<circle cx="55.5" cy="63.5" r="55.5" fill="#5CB3FF"/>
<g clip-path="url(#clip0_765_11575)">
<g clip-path="url(#clip1_765_11575)">
<path fill-rule="evenodd" clip-rule="evenodd" d="M62.9508 80.5237C63.0965 80.7977 63.314 81.0268 63.5801 81.1866C63.8461 81.3463 64.1507 81.4305 64.461 81.4302H73.0323C73.3909 81.4298 73.7404 81.3165 74.0311 81.1063C74.3217 80.8962 74.5389 80.5999 74.6518 80.2594L76.4307 75.0137L76.1255 67.1235C75.9768 66.6956 75.7582 66.2954 75.4786 65.939C75.105 65.4926 74.7953 65.3992 74.4468 65.4448C74.3921 65.4539 74.3921 65.4539 74.2645 65.463C74.3989 65.463 74.1871 65.8798 73.9889 66.6702L72.8751 66.431C73.1348 64.9323 73.1348 63.8298 72.932 63.2217C72.563 62.5155 71.513 62.3333 71.0825 63.1442C70.8297 63.8731 70.7021 64.7387 70.7021 65.7363L69.5632 65.7591C69.4721 63.5337 69.2489 62.1762 68.9869 61.8436C68.9459 61.7935 67.7091 61.7753 67.7045 61.7821C67.4289 62.1625 67.1579 63.823 66.9825 66.5654L65.8436 66.529V58.493C65.8436 57.247 65.101 56.6047 64.0578 56.6708C63.0237 56.7345 62.2242 57.4725 62.2402 58.477L62.5249 68.4833C62.5307 68.7134 62.458 68.9386 62.3189 69.1219C62.1797 69.3052 61.9823 69.4357 61.7591 69.4919C61.5359 69.5481 61.3002 69.5266 61.0908 69.4311C60.8815 69.3356 60.7108 69.1716 60.607 68.9662L60.5432 68.8432C60.3398 68.4381 60.0278 68.0976 59.6421 67.8595C59.2564 67.6213 58.8121 67.4951 58.3588 67.4948C58.2473 67.4953 58.1376 67.523 58.0392 67.5757C57.9409 67.6283 57.857 67.7043 57.7947 67.7968C57.7325 67.8894 57.6939 67.9958 57.6822 68.1067C57.6706 68.2176 57.6862 68.3297 57.7279 68.4332C58.7283 70.902 59.7336 73.3688 60.7437 75.8337C61.3905 77.4054 62.1263 78.9702 62.9531 80.5237H62.9508Z" fill="white" stroke="white" stroke-width="1.16667"/>
<path fill-rule="evenodd" clip-rule="evenodd" d="M62.7321 41.9335C63.2873 41.3996 64.0269 41.1002 64.7972 41.0974C65.5674 41.0946 66.3091 41.3887 66.8682 41.9185C67.4273 42.4483 67.7609 43.1731 67.7995 43.9424C67.8382 44.7116 67.579 45.4662 67.0758 46.0494L49.136 64.9846L49.1042 65.0119L49.0768 65.0415C48.5221 65.5984 47.77 65.9139 46.9839 65.9194C46.1979 65.925 45.4414 65.6201 44.8789 65.0711L44.8402 65.0324L36.877 57.0716C36.5991 56.7944 36.3787 56.4651 36.2282 56.1026C36.0778 55.7401 36.0004 55.3514 36.0004 54.9589C36.0004 54.5664 36.0778 54.1778 36.2282 53.8153C36.3787 53.4528 36.5991 53.1235 36.877 52.8463C37.1542 52.5684 37.4835 52.3479 37.846 52.1975C38.2085 52.0471 38.5972 51.9696 38.9897 51.9696C39.3822 51.9696 39.7708 52.0471 40.1333 52.1975C40.4959 52.3479 40.8251 52.5684 41.1023 52.8463L46.9038 58.6455L62.7321 41.9335Z" fill="white"/>
</g>
</g>
<circle cx="97" cy="23" r="21.5" fill="white" stroke="white" stroke-width="3"/>
<path d="M96.6802 32.2C95.6935 32.2 94.7268 32.06 93.7802 31.78C92.8468 31.4867 92.0602 31.0867 91.4202 30.58L92.5202 28.56C93.0268 28.9733 93.6402 29.3067 94.3602 29.56C95.0935 29.8133 95.8535 29.94 96.6402 29.94C97.5602 29.94 98.2802 29.7467 98.8002 29.36C99.3335 28.9733 99.6002 28.4533 99.6002 27.8C99.6002 27.36 99.4868 26.9733 99.2602 26.64C99.0468 26.3067 98.6602 26.0533 98.1002 25.88C97.5535 25.7067 96.8002 25.62 95.8402 25.62H92.4602L93.1802 18H101.4V20.18H94.1402L95.5002 18.94L94.9602 24.64L93.6002 23.42H96.4202C97.8068 23.42 98.9202 23.6067 99.7602 23.98C100.613 24.34 101.233 24.8467 101.62 25.5C102.02 26.14 102.22 26.8733 102.22 27.7C102.22 28.5133 102.02 29.26 101.62 29.94C101.22 30.62 100.607 31.1667 99.7802 31.58C98.9668 31.9933 97.9335 32.2 96.6802 32.2Z" fill="#101010"/>
<defs>
<clipPath id="clip0_765_11575">
<rect width="41" height="41" fill="white" transform="translate(36 41)"/>
</clipPath>
<clipPath id="clip1_765_11575">
<rect width="41" height="41" fill="white" transform="translate(36 41)"/>
</clipPath>
</defs>
</svg>
