<svg width="119" height="113" viewBox="0 0 119 113" fill="none" xmlns="http://www.w3.org/2000/svg">
<circle cx="55.5" cy="57.5" r="55.5" fill="#5CB3FF"/>
<path d="M63.5039 44.6895H72.4095L63.5039 35.7039V44.6895Z" fill="white"/>
<path d="M73.1133 47.0918H61.1016V35H41.8828V76H73.1133V47.0918ZM56.2969 54.2988H58.6992V56.7012H56.2969V54.2988ZM50.291 49.4941C50.283 49.4904 46.6875 49.3423 46.6875 45.8906C46.6875 44.3274 47.6951 43.0075 49.0898 42.5097V39.8848H51.4922V42.5097C52.8869 43.0074 53.8945 44.3275 53.8945 45.8906H51.4922C51.4922 45.2279 50.9537 44.6895 50.291 44.6895C49.6283 44.6895 49.0898 45.2279 49.0898 45.8906C49.0898 46.5534 49.6283 47.0918 50.291 47.0918C50.299 47.0956 53.8945 47.2436 53.8945 50.6953C53.8945 52.2585 52.8869 53.5786 51.4922 54.0762V56.7012H49.0898V54.0762C47.6951 53.5784 46.6875 52.2584 46.6875 50.6953H49.0898C49.0898 51.358 49.6283 51.8965 50.291 51.8965C50.9537 51.8965 51.4922 51.358 51.4922 50.6953C51.4922 50.0326 50.9537 49.4941 50.291 49.4941ZM68.3086 71.1152H46.6875V68.7129H68.3086V71.1152ZM68.3086 66.3105H46.6875V63.9082H68.3086V66.3105ZM68.3086 61.5059H46.6875V59.1035H68.3086V61.5059ZM68.3086 56.7012H61.1016V54.2988H68.3086V56.7012Z" fill="white"/>
<circle cx="96" cy="23" r="21.5" fill="white" stroke="white" stroke-width="3"/>
<path d="M95.4597 32.2C94.473 32.2 93.5064 32.06 92.5597 31.78C91.6264 31.4867 90.8397 31.0867 90.1997 30.58L91.3197 28.56C91.8264 28.9733 92.4397 29.3067 93.1597 29.56C93.8797 29.8133 94.633 29.94 95.4197 29.94C96.353 29.94 97.0797 29.7533 97.5997 29.38C98.1197 28.9933 98.3797 28.4733 98.3797 27.82C98.3797 27.18 98.1397 26.6733 97.6597 26.3C97.1797 25.9267 96.4064 25.74 95.3397 25.74H94.0597V23.96L98.0597 19.2L98.3997 20.18H90.8797V18H100.42V19.74L96.4197 24.5L95.0597 23.7H95.8397C97.5597 23.7 98.8464 24.0867 99.6997 24.86C100.566 25.62 101 26.6 101 27.8C101 28.5867 100.8 29.3133 100.4 29.98C99.9997 30.6467 99.3864 31.1867 98.5597 31.6C97.7464 32 96.713 32.2 95.4597 32.2Z" fill="#101010"/>
</svg>
