<svg width="120" height="111" viewBox="0 0 120 111" fill="none" xmlns="http://www.w3.org/2000/svg">
<circle cx="55.5" cy="55.5" r="55.5" fill="#5CB3FF"/>
<g clip-path="url(#clip0_765_11571)">
<path d="M44.2655 40.2891V50.9379C45.5223 50.4911 46.707 50.6717 47.701 51.3371L52.9731 55.2875C53.9348 55.9233 54.578 57.1268 54.578 58.4219C54.578 59.7173 53.9348 60.9208 52.8559 61.6395L47.8168 65.4238C46.61 66.2375 45.4512 66.3268 44.2655 65.9055C44.2655 66.3094 44.2655 74.2478 44.2655 73.9766C44.2655 74.6893 44.8419 75.2657 45.5546 75.2657H57.1561V48.0234C57.1561 46.7307 57.8158 45.5098 58.8897 44.7984L66.6207 39H45.5546C44.8419 39 44.2655 39.5767 44.2655 40.2891Z" fill="white"/>
<path d="M73.8906 40.289C73.8906 39.8248 73.6412 39.3968 73.237 39.1675C72.8329 38.9385 72.337 38.9446 71.9379 39.1839L61.6254 46.9183C61.2377 47.151 61 47.5702 61 48.0234V81.711C61 82.1756 61.2491 82.6036 61.6533 82.8325C62.0564 83.0611 62.5526 83.0557 62.9524 82.8164L73.2649 75.082C73.6526 74.849 73.8906 74.4298 73.8906 73.9766V40.289ZM64.8695 64.8672C64.1575 64.8672 63.5805 64.2901 63.5805 63.5781C63.5805 62.8661 64.1575 62.2891 64.8695 62.2891C65.5815 62.2891 66.1586 62.8661 66.1586 63.5781C66.1586 64.2901 65.5815 64.8672 64.8695 64.8672Z" fill="white"/>
<path d="M32.6638 60.9993H44.2654V62.2883C44.2654 62.7644 44.5272 63.2011 44.9465 63.4253C45.3598 63.6469 45.8697 63.6274 46.2695 63.3609L51.4257 59.4937C51.7846 59.2547 51.9998 58.8518 51.9998 58.4215C51.9998 57.9908 51.7846 57.588 51.4257 57.3489L46.2695 53.4807C45.8754 53.2179 45.3645 53.1937 44.9465 53.4166C44.5272 53.6409 44.2654 54.0776 44.2654 54.5536V55.8433H32.6638C31.9511 55.8433 31.3748 56.4197 31.3748 57.1324V59.7105C31.3748 60.4229 31.9511 60.9993 32.6638 60.9993Z" fill="white"/>
</g>
<circle cx="97" cy="23" r="23" fill="white"/>
<path d="M96.3114 32V19L97.4514 20.18H93.3514V18H98.9114V32H96.3114Z" fill="#101010"/>
<defs>
<clipPath id="clip0_765_11571">
<rect width="44" height="44" fill="white" transform="translate(30 39)"/>
</clipPath>
</defs>
</svg>
