<svg width="119" height="114" viewBox="0 0 119 114" fill="none" xmlns="http://www.w3.org/2000/svg">
<circle cx="55.5" cy="58.5" r="55.5" fill="#5CB3FF"/>
<path d="M42.15 43.175C42.15 42.3594 42.474 41.5773 43.0507 41.0006C43.6273 40.4239 44.4095 40.1 45.225 40.1H59.575C60.3906 40.1 61.1727 40.4239 61.7494 41.0006C62.3261 41.5773 62.65 42.3594 62.65 43.175V46.8506L69.3494 53.55C70.31 54.5108 70.8497 55.8138 70.85 57.1724V71.875C70.85 72.1468 70.742 72.4075 70.5498 72.5998C70.3576 72.792 70.0969 72.9 69.825 72.9C69.5532 72.9 69.2925 72.792 69.1002 72.5998C68.908 72.4075 68.8 72.1468 68.8 71.875V57.1724C68.7993 56.3571 68.4749 55.5755 67.898 54.9994L62.65 49.7514V56.0756L64.4007 57.8243C64.5929 58.0167 64.7008 58.2777 64.7006 58.5497C64.7004 58.8217 64.5922 59.0825 64.3997 59.2747C64.3044 59.3698 64.1913 59.4453 64.0668 59.4967C63.9424 59.5482 63.809 59.5746 63.6743 59.5745C63.4023 59.5743 63.1415 59.4661 62.9493 59.2736L56.7993 53.1236C55.9342 52.2585 55.4525 52.2954 55.2413 52.3487C54.8867 52.4348 54.573 52.7177 54.1343 53.14C53.9293 53.3368 53.8432 53.5295 53.8842 53.8165C53.9375 54.1753 54.2184 54.8169 55.1757 55.7743L57.6624 58.2609L58.2487 58.8493C58.3442 58.9445 58.4199 59.0576 58.4717 59.1821C58.5234 59.3066 58.55 59.4401 58.55 59.575C58.55 61.1617 58.5623 62.7586 59.001 63.964C59.2101 64.5401 59.4951 64.9603 59.8702 65.2412C60.2372 65.5159 60.7784 65.725 61.625 65.725C61.8969 65.725 62.1576 65.833 62.3498 66.0252C62.542 66.2174 62.65 66.4781 62.65 66.75V69.825C62.65 70.6405 62.3261 71.4227 61.7494 71.9993C61.1727 72.576 60.3906 72.9 59.575 72.9H45.225C44.4095 72.9 43.6273 72.576 43.0507 71.9993C42.474 71.4227 42.15 70.6405 42.15 69.825V43.175ZM52.4 51.375C51.5392 51.3749 50.6922 51.5916 49.9372 52.0052C49.1822 52.4187 48.5435 53.0158 48.0801 53.7413C47.6167 54.4668 47.3436 55.2974 47.2859 56.1563C47.2281 57.0152 47.3877 57.8748 47.7498 58.6558C48.1119 59.4368 48.6649 60.114 49.3578 60.6249C50.0507 61.1358 50.8611 61.4639 51.7142 61.579C52.5673 61.6941 53.4357 61.5924 54.2392 61.2833C55.0426 60.9743 55.7553 60.4678 56.3114 59.8107L56.2089 59.7082L53.7243 57.2236C52.6317 56.131 52.0023 55.1039 51.8568 54.1158C51.7861 53.6669 51.8278 53.2074 51.978 52.7785C52.1282 52.3496 52.3824 51.9646 52.7178 51.6579L52.7875 51.5902L52.9802 51.4057C52.7875 51.3846 52.5938 51.3744 52.4 51.375ZM56.5 69.825V70.85H58.55V69.825C58.55 69.5531 58.658 69.2924 58.8502 69.1002C59.0425 68.908 59.3032 68.8 59.575 68.8H60.6V67.693C59.8959 67.586 59.2279 67.3111 58.6525 66.8914C58.0283 67.0877 57.4829 67.4781 57.0958 68.0057C56.7087 68.5333 56.5 69.1706 56.5 69.825ZM44.2 46.25H45.225C46.0406 46.25 46.8227 45.926 47.3994 45.3493C47.9761 44.7727 48.3 43.9905 48.3 43.175V42.15H46.25V43.175C46.25 43.4468 46.142 43.7075 45.9498 43.8998C45.7576 44.092 45.4969 44.2 45.225 44.2H44.2V46.25ZM56.5 43.175C56.5 43.9905 56.824 44.7727 57.4007 45.3493C57.9773 45.926 58.7595 46.25 59.575 46.25H60.6V44.2H59.575C59.3032 44.2 59.0425 44.092 58.8502 43.8998C58.658 43.7075 58.55 43.4468 58.55 43.175V42.15H56.5V43.175ZM48.3 69.825C48.3 69.0094 47.9761 68.2273 47.3994 67.6506C46.8227 67.0739 46.0406 66.75 45.225 66.75H44.2V68.8H45.225C45.4969 68.8 45.7576 68.908 45.9498 69.1002C46.142 69.2924 46.25 69.5531 46.25 69.825V70.85H48.3V69.825Z" fill="white"/>
<circle cx="96" cy="23" r="21.5" fill="white" stroke="white" stroke-width="3"/>
<path d="M89.8929 28.82V27.02L96.7929 18H99.5729L92.7729 27.02L91.4729 26.62H102.573V28.82H89.8929ZM97.5729 32V28.82L97.6529 26.62V23.8H100.093V32H97.5729Z" fill="#101010"/>
</svg>
