<svg width="120" height="111" viewBox="0 0 120 111" fill="none" xmlns="http://www.w3.org/2000/svg">
<circle cx="55.5" cy="55.5" r="55.5" fill="#5CB3FF"/>
<path d="M42.143 43.2506C41.8069 42.1125 41.4842 40.9724 41.2417 39.8802C39.6472 38.9368 38.5626 37.2201 38.5626 35.236C38.5626 32.2514 40.9896 29.8262 43.9724 29.8262C46.9552 29.8262 49.3823 32.2533 49.3823 35.236C49.3823 35.6466 49.3269 36.0419 49.241 36.4257C49.7585 37.5657 50.1767 38.849 50.5433 40.1532C51.5745 38.7783 52.2085 37.0883 52.2085 35.236C52.2085 30.6855 48.523 27 43.9724 27C39.4219 27 35.7383 30.6855 35.7383 35.236C35.7383 39.1545 38.4785 42.418 42.143 43.2506Z" fill="white"/>
<path d="M36.4537 62.7489C38.4836 60.5548 40.7617 61.4141 43.8114 61.8781C46.4313 62.2811 49.0112 61.5459 48.8393 60.1309C48.5681 57.8413 48.1862 56.8177 47.3174 53.8521C46.6242 51.4938 45.3085 47.2431 44.1112 43.1795C42.5071 37.7429 42.0431 35.2184 44.178 34.5882C46.479 33.918 47.7986 37.1872 48.994 41.7205C50.3555 46.8802 51.0716 49.1584 51.4726 49.0381C52.1792 48.8357 51.2129 46.6282 53.0614 46.0839C55.372 45.4118 55.8188 47.2182 56.4662 47.0368C57.1135 46.842 56.8939 45.0127 58.7367 44.4742C60.589 43.9395 61.519 46.2195 62.2828 45.9923C63.039 45.7689 63.0218 44.9458 64.1637 44.6193C65.3076 44.2794 69.6118 46.2062 72.0752 54.6217C75.1668 65.2027 71.6837 67.1696 72.7397 70.752L58.9391 75.9995C57.822 73.3127 54.3618 73.1141 51.3008 71.4012C48.2168 69.6654 46.122 66.2836 38.0845 66.4478C35.0616 66.5089 35.2048 64.099 36.4537 62.7489Z" fill="white"/>
<circle cx="97" cy="24" r="23" fill="white"/>
<path d="M91.8797 33V31.26L97.4397 25.98C97.9064 25.54 98.253 25.1533 98.4797 24.82C98.7064 24.4867 98.853 24.18 98.9197 23.9C98.9997 23.6067 99.0397 23.3333 99.0397 23.08C99.0397 22.44 98.8197 21.9467 98.3797 21.6C97.9397 21.24 97.293 21.06 96.4397 21.06C95.7597 21.06 95.1397 21.18 94.5797 21.42C94.033 21.66 93.5597 22.0267 93.1597 22.52L91.3397 21.12C91.8864 20.3867 92.6197 19.82 93.5397 19.42C94.473 19.0067 95.513 18.8 96.6597 18.8C97.673 18.8 98.553 18.9667 99.2997 19.3C100.06 19.62 100.64 20.08 101.04 20.68C101.453 21.28 101.66 21.9933 101.66 22.82C101.66 23.2733 101.6 23.7267 101.48 24.18C101.36 24.62 101.133 25.0867 100.8 25.58C100.466 26.0733 99.9797 26.6267 99.3397 27.24L94.5597 31.78L94.0197 30.8H102.2V33H91.8797Z" fill="#101010"/>
</svg>
