<svg width="38" height="38" viewBox="0 0 38 38" fill="none" xmlns="http://www.w3.org/2000/svg">
<circle cx="19" cy="19" r="19" fill="#5CB3FF"/>
<path d="M19 9C13.48 9 9 13.48 9 19C9 24.52 13.48 29 19 29H24V27H19C14.66 27 11 23.34 11 19C11 14.66 14.66 11 19 11C23.34 11 27 14.66 27 19V20.43C27 21.22 26.29 22 25.5 22C24.71 22 24 21.22 24 20.43V19C24 16.24 21.76 14 19 14C16.24 14 14 16.24 14 19C14 21.76 16.24 24 19 24C20.38 24 21.64 23.44 22.54 22.53C23.19 23.42 24.31 24 25.5 24C27.47 24 29 22.4 29 20.43V19C29 13.48 24.52 9 19 9ZM19 22C17.34 22 16 20.66 16 19C16 17.34 17.34 16 19 16C20.66 16 22 17.34 22 19C22 20.66 20.66 22 19 22Z" fill="white"/>
<path d="M19 9C13.48 9 9 13.48 9 19C9 24.52 13.48 29 19 29H24V27H19C14.66 27 11 23.34 11 19C11 14.66 14.66 11 19 11C23.34 11 27 14.66 27 19V20.43C27 21.22 26.29 22 25.5 22C24.71 22 24 21.22 24 20.43V19C24 16.24 21.76 14 19 14C16.24 14 14 16.24 14 19C14 21.76 16.24 24 19 24C20.38 24 21.64 23.44 22.54 22.53C23.19 23.42 24.31 24 25.5 24C27.47 24 29 22.4 29 20.43V19C29 13.48 24.52 9 19 9ZM19 22C17.34 22 16 20.66 16 19C16 17.34 17.34 16 19 16C20.66 16 22 17.34 22 19C22 20.66 20.66 22 19 22Z" fill="white"/>
</svg>
