<svg width="36" height="36" viewBox="0 0 36 36" fill="none" xmlns="http://www.w3.org/2000/svg">
<g clip-path="url(#clip0_1_2120)">
<path d="M18 0.5625C8.37021 0.5625 0.5625 8.37302 0.5625 18C0.5625 27.6326 8.37021 35.4375 18 35.4375C27.6298 35.4375 35.4375 27.6326 35.4375 18C35.4375 8.37302 27.6298 0.5625 18 0.5625ZM18 8.29688C19.631 8.29688 20.9531 9.61903 20.9531 11.25C20.9531 12.881 19.631 14.2031 18 14.2031C16.369 14.2031 15.0469 12.881 15.0469 11.25C15.0469 9.61903 16.369 8.29688 18 8.29688ZM21.9375 26.1562C21.9375 26.6222 21.5597 27 21.0938 27H14.9062C14.4403 27 14.0625 26.6222 14.0625 26.1562V24.4688C14.0625 24.0028 14.4403 23.625 14.9062 23.625H15.75V19.125H14.9062C14.4403 19.125 14.0625 18.7472 14.0625 18.2812V16.5938C14.0625 16.1278 14.4403 15.75 14.9062 15.75H19.4062C19.8722 15.75 20.25 16.1278 20.25 16.5938V23.625H21.0938C21.5597 23.625 21.9375 24.0028 21.9375 24.4688V26.1562Z" fill="white"/>
</g>
<defs>
<clipPath id="clip0_1_2120">
<rect width="36" height="36" fill="white"/>
</clipPath>
</defs>
</svg>
