<svg aria-hidden="true" style="position:absolute;width:0;height:0;overflow:hidden" xmlns="http://www.w3.org/2000/svg"><defs><symbol id="icon-benefit6" viewBox="0 0 32 32"><path d="M13.104 14.674C10.289 14.674 8 16.981 8 19.817s2.29 5.143 5.104 5.143c2.226 0 4.122-1.443 4.817-3.448.345.014.661.019.917.019 1.567 0 5.213-.167 5.213-1.716v-2.092a.66.66 0 0 0 0-.277v-1.699a.66.66 0 0 0 0-.277v-1.891a.66.66 0 0 0-.029-.372.927.927 0 0 0 .027-.213V10.903a.66.66 0 0 0 0-.275V8.739a.66.66 0 0 0-.031-.381.65.65 0 0 0-.275-.374c-1.063-.912-4.454-.943-4.905-.943-.449 0-3.843.031-4.907.941a.65.65 0 0 0-.275.374.665.665 0 0 0-.031.383v1.891a.724.724 0 0 0 0 .277V12.998c0 .074.01.145.027.213a.65.65 0 0 0-.027.372v1.12a4.705 4.705 0 0 0-.521-.029zm10.353 5.1-.002.037v.017c-.029.577-2.089 1.044-4.616 1.044-.25 0-.496-.006-.737-.014a5.103 5.103 0 0 0 .097-1.311c.236.006.453.01.638.01 1.176 0 3.519-.095 4.618-.794v1.011h.002zm0-1.975-.002.037v.017c-.029.577-2.089 1.044-4.616 1.044-.244 0-.482-.006-.718-.014a5.154 5.154 0 0 0-.54-1.532c.478.029.917.037 1.258.037 1.176 0 3.519-.095 4.618-.794v1.205zm0-4.845-.002.037v.017c-.029.577-2.089 1.044-4.616 1.044s-4.587-.467-4.616-1.044c0-.012.002-.023 0-.033v-.021l-.002-1.205c1.1.701 3.443.794 4.618.794s3.519-.093 4.618-.794v1.205zm-4.618-5.155c2.622 0 4.245.49 4.52.796-.275.306-1.898.796-4.52.796-2.62.002-4.245-.49-4.52-.796.275-.306 1.9-.796 4.52-.796zm0 2.352c.414 0 3.33-.027 4.618-.744v1.381l-.002.037v.017c-.029.577-2.089 1.044-4.616 1.044s-4.587-.467-4.616-1.044c0-.012.002-.023 0-.033v-.023l-.002-1.381c1.288.719 4.204.746 4.618.746zm0 4.843c.414 0 3.33-.027 4.618-.744v1.381l-.002.037v.017c-.029.577-2.089 1.044-4.616 1.044-.607 0-1.186-.027-1.717-.076a5.105 5.105 0 0 0-2.901-1.852v-.55c1.288.717 4.204.744 4.618.744zm-1.285 4.823c0 2.472-1.996 4.484-4.45 4.484s-4.45-2.011-4.45-4.484c0-2.472 1.996-4.484 4.45-4.484s4.45 2.011 4.45 4.484z"/><path d="M9.666 19.817c0 1.91 1.543 3.465 3.438 3.465s3.439-1.555 3.439-3.465-1.543-3.465-3.438-3.465c-1.898 0-3.438 1.554-3.438 3.465zm6.442 0c0 1.668-1.348 3.026-3.004 3.026S10.1 21.485 10.1 19.817c0-1.668 1.348-3.026 3.004-3.026s3.004 1.358 3.004 3.026z"/><path d="M12.684 17.632v.372a1.21 1.21 0 0 0-.46.304c-.193.205-.297.48-.297.769 0 .155.029.3.086.43.078.18.211.339.398.471.144.103.32.194.558.289a.962.962 0 0 1 .308.176.152.152 0 0 1 .037.052c.004.01.01.027.01.054 0 .043-.012.07-.043.095-.045.039-.125.06-.215.06a.934.934 0 0 1-.533-.159l-.129-.087a.211.211 0 0 0-.189-.025.215.215 0 0 0-.137.134l-.203.573a.22.22 0 0 0 .078.252l.076.054c.119.087.269.155.441.205.06.019.121.033.183.045v.325c0 .122.098.219.217.219h.558a.218.218 0 0 0 .217-.219v-.387c.201-.076.373-.194.507-.349.185-.213.285-.486.285-.771a1.137 1.137 0 0 0-.427-.92 2.055 2.055 0 0 0-.548-.314l-.023-.01c-.234-.097-.328-.159-.367-.194a.13.13 0 0 1-.029-.033c-.002-.002-.002-.01-.002-.029a.07.07 0 0 1 .018-.048c.029-.029.092-.043.174-.045.105 0 .199.014.289.045.074.025.129.056.174.081l.123.07a.218.218 0 0 0 .314-.111l.211-.562a.221.221 0 0 0-.094-.267l-.096-.05a1.519 1.519 0 0 0-.484-.184v-.308a.217.217 0 0 0-.217-.219h-.552a.214.214 0 0 0-.217.217zm.435.533v-.314h.117v.277a.22.22 0 0 0 .197.219c.158.014.302.056.431.118l-.055.149a1.326 1.326 0 0 0-.581-.13c-.203 0-.363.058-.476.169a.506.506 0 0 0-.15.364.484.484 0 0 0 .178.391c.096.087.252.172.503.275.197.081.339.161.447.252a.705.705 0 0 1 .269.581.741.741 0 0 1-.178.482.857.857 0 0 1-.447.263.22.22 0 0 0-.166.213v.329h-.121v-.298a.219.219 0 0 0-.199-.219 1.416 1.416 0 0 1-.547-.159l.053-.153c.201.108.441.169.667.169a.735.735 0 0 0 .499-.163.551.551 0 0 0 .197-.43.548.548 0 0 0-.045-.227.6.6 0 0 0-.127-.188c-.098-.101-.248-.192-.455-.275a2.159 2.159 0 0 1-.466-.238.707.707 0 0 1-.25-.291.626.626 0 0 1-.049-.254c0-.178.064-.343.181-.467a.81.81 0 0 1 .41-.229.22.22 0 0 0 .166-.213z"/></symbol><symbol id="icon-arrow" viewBox="0 0 32 32"><path fill="#728fce" style="fill:var(--color1, #728fce)" d="M16 26.88C9.984 26.88 5.12 22.016 5.12 16S9.984 5.12 16 5.12c6.016 0 10.88 4.864 10.88 10.88S22.016 26.88 16 26.88zM16 6.4c-5.312 0-9.6 4.288-9.6 9.6s4.288 9.6 9.6 9.6c5.312 0 9.6-4.288 9.6-9.6S21.312 6.4 16 6.4z"/><path fill="#728fce" style="fill:var(--color1, #728fce)" d="M16.192 22.208 9.984 16l6.208-6.208.896.896L11.776 16l5.312 5.312-.896.896z"/><path fill="#728fce" style="fill:var(--color1, #728fce)" d="M10.88 15.36h10.88v1.28H10.88v-1.28z"/></symbol><symbol id="icon-benefit2" viewBox="0 0 32 32"><path d="M23.595 8.235H8.662a1.495 1.495 0 0 0-1.493 1.493v10.155a1.495 1.495 0 0 0 1.493 1.493h5.973v-.597H8.662a.896.896 0 0 1-.896-.896V9.728c0-.495.401-.896.896-.896h14.933c.495 0 .896.401.896.896v10.155a.896.896 0 0 1-.896.896h-.299v.597h.299a1.495 1.495 0 0 0 1.493-1.493V9.728a1.495 1.495 0 0 0-1.493-1.493z"/><path d="M23.595 19.286V9.729a.3.3 0 0 0-.299-.299H8.96a.3.3 0 0 0-.299.299v10.155a.3.3 0 0 0 .299.299h7.765v-.597H9.258v-9.557h13.739v9.259h.597z"/><path d="M9.856 10.624h.597v.597h-.597v-.597zM9.856 11.819h1.195v.597H9.856v-.597zM9.856 13.013h1.195v.597H9.856v-.597zM9.856 14.208h1.195v.597H9.856v-.597zM9.856 15.403h1.195V16H9.856v-.597zM9.856 16.597h1.195v.597H9.856v-.597zM9.856 17.792h1.195v.597H9.856v-.597zM22.4 15.403h-8.96v-.772l.551-.551.395.593c.049.075.13.124.219.133h.03a.295.295 0 0 0 .211-.088l1.282-1.282.685.685c.059.06.141.092.225.087s.162-.043.216-.107l1.264-1.517 1.264 1.517a.301.301 0 0 0 .441.02l.685-.685.386.386a.299.299 0 0 0 .45-.032l.896-1.195-.478-.358-.689.919-.354-.354a.298.298 0 0 0-.422 0l-.665.665-1.284-1.541a.31.31 0 0 0-.46 0l-1.284 1.541-.665-.665a.298.298 0 0 0-.422 0l-1.236 1.236-.395-.593a.298.298 0 0 0-.459-.045l-.385.387V11.82h-.597v3.883a.3.3 0 0 0 .299.299h9.259v-.597zM12.843 10.624h1.792v.597h-1.792v-.597zM15.232 10.624h.597v.597h-.597v-.597zM12.843 16.597h1.195v.597h-1.195v-.597zM14.635 16.597h.597v.597h-.597v-.597zM12.843 17.792h1.195v.597h-1.195v-.597zM14.635 17.792h.597v.597h-.597v-.597zM16.427 16.597h.597v.597h-.597v-.597zM20.011 16.597h1.195v.597h-1.195v-.597zM21.803 16.597h.597v.597h-.597v-.597zM20.011 17.792h1.195v.597h-1.195v-.597zM21.803 17.792h.597v.597h-.597v-.597z"/><path d="M21.952 19.297a.897.897 0 0 0-.728.201l-.018.015a.895.895 0 0 0-1.195 0 .932.932 0 0 0-.896-.178v-1.512a.92.92 0 0 0-.747-.916.897.897 0 0 0-1.046.884v3.654l-.793-.475a.822.822 0 0 0-.794-.03l-.047.023a.828.828 0 0 0-.111 1.411l1.87 1.335a.3.3 0 0 0 .174.055H22.4a.3.3 0 0 0 .299-.299v-3.253a.92.92 0 0 0-.747-.916zm.149 3.871h-4.384l-1.792-1.28a.23.23 0 0 1 .029-.391l.047-.023a.23.23 0 0 1 .22.008l1.245.747a.3.3 0 0 0 .454-.256v-4.181a.298.298 0 0 1 .35-.294.323.323 0 0 1 .246.326v2.357a.3.3 0 0 0 .598 0 .3.3 0 0 1 .598 0 .3.3 0 0 0 .598 0 .3.3 0 0 1 .598 0 .3.3 0 0 0 .598 0 .299.299 0 0 1 .351-.294.323.323 0 0 1 .246.326v2.955zM11.648 10.624h.597v8.363h-.597v-8.363z"/></symbol><symbol id="icon-benefit3" viewBox="0 0 32 32"><path d="M11.941 23.483c.722 0 1.309-.555 1.309-1.236v-9.069c0-.681-.587-1.236-1.309-1.236H9.565c-.722 0-1.309.553-1.309 1.236v9.071c0 .681.588 1.236 1.309 1.236l2.376-.002zm-3.033-1.235v-9.069c0-.319.295-.578.655-.578h2.376c.363 0 .655.259.655.578v9.071c0 .319-.295.578-.655.578H9.565c-.363-.002-.657-.261-.657-.58zM20.604 7.36c-.722 0-1.309.725-1.309 1.617v12.889c0 .893.587 1.617 1.309 1.617h2.376c.722 0 1.309-.725 1.309-1.617V8.977c0-.893-.586-1.617-1.309-1.617h-2.376zm3.034 1.617v12.889c0 .519-.3.959-.657.959h-2.376c-.355 0-.655-.439-.655-.959V8.977c0-.519.3-.959.655-.959h2.376c.357 0 .657.441.657.959zM15.007 23.483h2.376c.735 0 1.309-.408 1.309-.929V16.56c0-.521-.574-.929-1.309-.929h-2.376c-.735 0-1.309.408-1.309.929v5.994c0 .523.574.929 1.309.929zm-.657-6.923c0-.082.247-.269.655-.269h2.376c.408 0 .655.187.655.269v5.994c0 .082-.247.269-.655.269h-2.374c-.408 0-.655-.187-.655-.269V16.56h-.002zM8.828 24.677c0 .334.293.605.655.605h13.825c.363 0 .655-.271.655-.605s-.293-.603-.655-.603H9.481c-.361-.002-.654.269-.654.603z"/></symbol><symbol id="icon-benefit4" viewBox="0 0 32 32"><path d="M21.944 12.692v-.612h-.56v.56h-.56v.84c0 .463.377.84.84.84a.28.28 0 0 1 .28.28v.28h-.28a.28.28 0 0 1-.28-.28v-.28h-.56v.28c0 .365.235.673.56.788V16h.56v-.56h.56v-.84a.841.841 0 0 0-.84-.84.28.28 0 0 1-.28-.28v-.28h.28a.28.28 0 0 1 .28.28v.28h.56v-.28a.837.837 0 0 0-.56-.788z"/><path d="M24.744 14.04c0-1.698-1.382-3.08-3.08-3.08s-3.08 1.382-3.08 3.08c0 .608.176 1.187.501 1.683a4.454 4.454 0 0 0-2.02.512 2.923 2.923 0 0 0-.906-.974 2.951 2.951 0 0 0-1.211-.463l-1.179-.169-.163-.651c.48-.3.838-.776.983-1.338h.074a1.12 1.12 0 0 0 1.12-1.12c0-.265-.096-.506-.251-.697l.202-.752a1.645 1.645 0 0 0-1.03-1.939l-1.842-.67a2.348 2.348 0 0 0-2.684.798l-.142.189a1.121 1.121 0 0 0-.972 1.111c0 .451.158 1.004.244 1.271-.15.191-.244.428-.244.689 0 .618.502 1.12 1.12 1.12h.074c.145.562.503 1.038.983 1.338l-.163.651-1.179.169a2.957 2.957 0 0 0-1.211.463 2.922 2.922 0 0 0-1.304 2.437v5.022h8.059a4.48 4.48 0 0 0 3.701 1.96c2.47 0 4.48-2.01 4.48-4.48a4.468 4.468 0 0 0-1.301-3.153 3.084 3.084 0 0 0 2.421-3.007zm-6.68 8.12a5.934 5.934 0 0 1-.309-1.68h2.78a5.944 5.944 0 0 1-.311 1.68h-2.159zm1.932.56a5.053 5.053 0 0 1-.853 1.287 5.023 5.023 0 0 1-.854-1.287h1.707zm-1.704-5.04a5.045 5.045 0 0 1 .853-1.287c.207.22.555.65.854 1.287h-1.707zm1.932.56c.163.476.282 1.036.309 1.68h-2.78a5.908 5.908 0 0 1 .312-1.68h2.159zm-2.55-.56h-1.528a3.922 3.922 0 0 1 2.301-1.334 5.79 5.79 0 0 0-.773 1.334zm-1.92.56h1.716a6.573 6.573 0 0 0-.276 1.68h-1.956a3.88 3.88 0 0 1 .516-1.68zm1.44 2.24c.025.633.127 1.194.276 1.68h-1.716a3.88 3.88 0 0 1-.516-1.68h1.956zm3.9 0h1.956a3.88 3.88 0 0 1-.516 1.68h-1.716a6.615 6.615 0 0 0 .277-1.68zm0-.56a6.617 6.617 0 0 0-.276-1.68h1.716a3.88 3.88 0 0 1 .516 1.68h-1.956zm-.48-2.24a5.79 5.79 0 0 0-.773-1.334 3.922 3.922 0 0 1 2.301 1.334h-1.528zm-8.19-1.367.361.181-.231.346h-.26l-.231-.346.361-.181zm-.866.433.277.416-.284.852a6.321 6.321 0 0 1-.459-1.034l.466-.233zm.788.654h.156l.409 1.225c-.151.211-.31.416-.487.61a6.443 6.443 0 0 1-.487-.61l.409-1.225zm.951.613-.284-.852.277-.416.466.233a6.418 6.418 0 0 1-.459 1.035zm.792-2.772a6.394 6.394 0 0 1-.174 1.192l-1.019-.509.746-.746.446.064zm.575-3.161v-1.12a.56.56 0 0 1 0 1.12zm-5.04-.56a.56.56 0 0 1 .56-.56h.01c-.004.056-.01.112-.01.169v.951a.56.56 0 0 1-.56-.56zm.689-1.12h-.129c-.141 0-.274.029-.398.077-.074-.258-.162-.623-.162-.917a.56.56 0 0 1 .56-.56h.14l.303-.404a1.797 1.797 0 0 1 2.044-.608l1.842.67a1.085 1.085 0 0 1 .68 1.272l-.145.542a1.11 1.11 0 0 0-.384-.072h-.28c-1.297 0-2.909-1.062-2.925-1.073l-.156-.103-.155.104a2.165 2.165 0 0 0-.836 1.073zm.431 1.68v-.951a1.6 1.6 0 0 1 .573-1.23c.438.267 1.645.946 2.787 1.047v1.133a1.681 1.681 0 0 1-3.36 0zm1.68 2.24c.232 0 .456-.036.666-.101l.144.575-.81.81-.81-.81.144-.575c.21.066.434.101.666.101zm-1.219.857.746.746-1.019.509a6.478 6.478 0 0 1-.174-1.192l.446-.064zM9.624 22.16v-4.2h-.56v4.2h-1.12v-4.462a2.368 2.368 0 0 1 2.034-2.346l.218-.031a6.932 6.932 0 0 0 2.029 4.517l.198.198.198-.198a6.932 6.932 0 0 0 2.029-4.517l.218.031c.348.05.687.179.979.374.307.205.557.48.739.799a4.476 4.476 0 0 0-1.924 3.674c0 .703.167 1.367.458 1.96H9.622zm6.522.56h1.528a5.79 5.79 0 0 0 .773 1.334 3.922 3.922 0 0 1-2.301-1.334zm3.696 1.334a5.79 5.79 0 0 0 .773-1.334h1.528a3.922 3.922 0 0 1-2.301 1.334zm1.899-7.498a4.453 4.453 0 0 0-1.895-.776 2.5 2.5 0 0 1-.701-1.74c0-1.389 1.13-2.52 2.52-2.52s2.52 1.131 2.52 2.52a2.52 2.52 0 0 1-2.444 2.516z"/></symbol><symbol id="icon-benefit5" viewBox="0 0 32 32"><path d="M16.192 15.104a.31.31 0 0 1-.127-.028l-5.077-2.389a.3.3 0 0 1 0-.54l5.077-2.389a.297.297 0 0 1 .254 0l5.077 2.389a.298.298 0 0 1 0 .54l-5.077 2.389a.297.297 0 0 1-.127.028zm-4.376-2.688 4.376 2.059 4.376-2.059-4.376-2.059-4.376 2.059z"/><path d="M16.192 17.493a.3.3 0 0 1-.134-.031l-3.584-1.792a.3.3 0 0 1-.165-.267v-2.284a.298.298 0 0 1 .426-.27l3.457 1.627 3.457-1.627a.299.299 0 0 1 .426.27v2.284a.298.298 0 0 1-.165.267l-3.584 1.792a.3.3 0 0 1-.134.031zm-3.285-2.275 3.285 1.643 3.285-1.643v-1.629l-3.158 1.486a.297.297 0 0 1-.254 0l-3.158-1.486v1.629zM21.269 12.715h-5.077a.3.3 0 0 1 0-.598h5.077a.3.3 0 0 1 0 .598z"/><path d="M21.269 15.403a.3.3 0 0 1-.299-.299v-2.688a.3.3 0 0 1 .598 0v2.688a.3.3 0 0 1-.299.299zM16.192 13.312a.3.3 0 0 1-.299-.299v-1.195a.3.3 0 0 1 .598 0v1.195a.3.3 0 0 1-.299.299z"/><path d="M20.671 16.298a.3.3 0 0 1-.248-.464l.597-.896a.298.298 0 1 1 .497.331l-.597.896a.3.3 0 0 1-.249.133z"/><path d="M21.867 16.298a.3.3 0 0 1-.249-.133l-.597-.896a.3.3 0 0 1 .497-.331l.597.896a.3.3 0 0 1-.248.464zM16.192 16a.3.3 0 0 1-.299-.299v-.896a.3.3 0 0 1 .598 0v.896a.3.3 0 0 1-.299.299z"/><path d="M24.853 18.688H7.53a.3.3 0 0 1-.299-.299V8.533c0-.659.536-1.195 1.195-1.195h15.53c.659 0 1.195.536 1.195 1.195v9.856a.3.3 0 0 1-.299.299zM7.829 18.09h16.725V8.533a.598.598 0 0 0-.598-.598H8.426a.598.598 0 0 0-.598.598v9.557z"/><path d="M23.957 21.077H8.427a1.196 1.196 0 0 1-1.195-1.195v-1.493a.3.3 0 0 1 .299-.299h17.323a.3.3 0 0 1 .299.299v1.493c0 .659-.536 1.195-1.195 1.195zM7.829 18.688v1.194c0 .33.268.598.598.598h15.53c.33 0 .598-.268.598-.598v-1.194H7.83z"/><path d="M17.088 19.883h-1.792a.3.3 0 0 1 0-.598h1.792a.3.3 0 0 1 0 .598zM23.659 18.688H8.726a.3.3 0 0 1-.299-.299V8.832a.3.3 0 0 1 .299-.299h14.933a.3.3 0 0 1 .299.299v9.557a.3.3 0 0 1-.299.299zm-14.635-.597H23.36v-8.96H9.024v8.96zM20.074 24.662h-7.765a.897.897 0 0 1 0-1.792h7.765a.897.897 0 0 1 0 1.792zm-7.765-1.195a.3.3 0 0 0 0 .598h7.765a.3.3 0 0 0 0-.598h-7.765z"/><path d="M19.477 23.467h-6.571a.3.3 0 0 1 0-.598c.991 0 1.493-.703 1.493-2.091a.3.3 0 0 1 .299-.299h2.987a.3.3 0 0 1 .299.299c0 1.387.502 2.091 1.493 2.091a.3.3 0 0 1 0 .598zm-5.116-.598h3.661c-.368-.407-.584-1.014-.628-1.792h-2.406c-.044.778-.26 1.385-.628 1.792z"/></symbol><symbol id="icon-benefit1" viewBox="0 0 32 32"><path d="m21.583 22.648-.669-2.008a2.024 2.024 0 0 0-1.558-1.351l-1.932-.351v-.15a2.91 2.91 0 0 0 .862-.765h.584a.868.868 0 0 0 .867-.867v-3.468c0-2.072-1.686-3.757-3.757-3.757s-3.757 1.686-3.757 3.757v2.023c0 .557.396 1.023.922 1.132a2.891 2.891 0 0 0 1.391 1.945v.15l-1.932.351a2.021 2.021 0 0 0-1.557 1.351l-.116.347-.984-.984a.29.29 0 0 1 0-.409l1.142-1.141-2.143-2.143-1.29 1.29c-.382.382-.593.89-.593 1.431s.21 1.048.593 1.43l3.906 3.906c.382.382.89.593 1.431.593a2 2 0 0 0 1.421-.584l1.408-1.29-.439-.438h6.202zm-2.424-5.492a.29.29 0 0 1-.289.289h-.243c.084-.191.147-.392.188-.602.124-.026.238-.075.344-.137v.45zm-.289-.947v-.995c.172.1.289.285.289.498s-.117.397-.289.498zm-5.781 0c-.172-.1-.289-.285-.289-.498s.117-.397.289-.498v.995zm0-1.943v.33a1.131 1.131 0 0 0-.289.12v-1.028c0-1.753 1.426-3.179 3.179-3.179s3.179 1.426 3.179 3.179v1.028a1.168 1.168 0 0 0-.289-.12v-.33h-.289a3.182 3.182 0 0 1-2.263-.937l-.338-.338-.338.338a3.182 3.182 0 0 1-2.263.937h-.289zm.578 2.023v-1.456a3.743 3.743 0 0 0 2.312-1.027 3.743 3.743 0 0 0 2.312 1.027v1.456c0 .421-.115.816-.313 1.156h-2v.578h1.524c-.408.359-.94.578-1.524.578a2.314 2.314 0 0 1-2.312-2.312zm3.179 2.757v.014l-.867.867-.867-.867v-.014a2.89 2.89 0 0 0 1.734 0zm-5.253 1.777c.167-.501.593-.87 1.112-.965l2.02-.367 1.254 1.254 1.253-1.253 2.02.367c.519.095.946.464 1.112.965l.416 1.247h-5.978l-1.126-1.126-1.251 1.132a.295.295 0 0 1-.409 0l-.631-.631.207-.621zm-2.65-3.696 1.325 1.325-.314.314-1.325-1.326.314-.314zm5.069 6.832c-.273.272-.636.423-1.022.423s-.749-.151-1.022-.423l-3.906-3.906c-.273-.273-.423-.636-.423-1.022s.15-.749.423-1.022l.159-.159 1.325 1.326-.01.01a.868.868 0 0 0 0 1.226l2.073 2.073c.164.164.382.254.613.254s.449-.09.603-.244l.022-.019 1.332 1.332-.166.152zm.592-.543-1.329-1.329.382-.345 1.326 1.326-.38.347zM24.072 7.04h-4.046a.868.868 0 0 0-.867.867v2.312c0 .478.389.867.867.867h.772l-.299 1.743 2.789-1.743h.784a.868.868 0 0 0 .867-.867V7.907a.868.868 0 0 0-.867-.867zm.289 3.179a.29.29 0 0 1-.289.289h-.95l-1.836 1.147.197-1.147h-1.458a.29.29 0 0 1-.289-.289V7.907a.29.29 0 0 1 .289-.289h4.046a.29.29 0 0 1 .289.289v2.312z"/><path d="M23.783 8.196h-3.468v.578h3.468v-.578zM22.627 9.352h-2.312v.578h2.312v-.578zM23.783 9.352h-.578v.578h.578v-.578zM15.979 7.907a8.086 8.086 0 0 0-7.875 6.256l-.548-.913-.496.297 1.016 1.693 1.693-1.016-.297-.496-.783.47a7.511 7.511 0 0 1 9.518-5.379l.171-.552a8.084 8.084 0 0 0-2.398-.361zM24.799 13.44l-1.693-1.016-1.016 1.693.496.297.506-.843a7.529 7.529 0 0 1-1.274 7.16l.449.364a8.113 8.113 0 0 0 1.805-5.096c0-.884-.142-1.748-.42-2.574l.849.51.297-.496z"/></symbol><symbol id="icon-registration_1" viewBox="0 0 34 32"><path d="M19.31 19.333v2.814c-1.276-.431-2.642-.563-3.983-.385s-2.617.66-3.723 1.406c-1.105.747-2.007 1.735-2.629 2.883s-.947 2.422-.946 3.715l-2.82-.001c0-1.644.393-3.267 1.151-4.744s1.859-2.768 3.22-3.775c1.361-1.007 2.945-1.703 4.632-2.035s3.43-.291 5.097.12v.001zm-2.82-1.686c-4.674 0-8.46-3.616-8.46-8.08s3.786-8.08 8.46-8.08c4.674 0 8.46 3.616 8.46 8.08s-3.786 8.08-8.46 8.08zm0-2.693c3.116 0 5.64-2.41 5.64-5.386s-2.524-5.387-5.64-5.387-5.64 2.41-5.64 5.387c0 2.976 2.524 5.386 5.64 5.386zm8.46 8.08v-4.04h2.82v4.04H32v2.693h-4.23v4.04h-2.82v-4.04h-4.23v-2.693h4.23z"/></symbol><symbol id="icon-registration_2" viewBox="0 0 33 32"><path d="M15.678 27.157H7.596c-.357 0-.7-.142-.952-.396s-.394-.597-.394-.955V6.896a1.345 1.345 0 0 1 1.346-1.351h6.735v4.052c0 1.075.426 2.105 1.184 2.865s1.786 1.187 2.857 1.187h4.041v6.754a1.351 1.351 0 0 0 1.347 1.351c.357 0 .7-.142.952-.396s.394-.597.394-.955v-8.185a1.766 1.766 0 0 0-.081-.365v-.122a1.432 1.432 0 0 0-.256-.378l-8.082-8.104a1.447 1.447 0 0 0-.377-.257.383.383 0 0 0-.135 0 1.512 1.512 0 0 0-.418-.149H7.594c-1.072 0-2.1.427-2.857 1.187S3.553 5.821 3.553 6.895v18.91c0 1.075.426 2.105 1.184 2.865s1.786 1.187 2.857 1.187h8.082c.357 0 .7-.142.952-.396s.395-.597.395-.955a1.351 1.351 0 0 0-1.347-1.351zM17.025 7.45l3.489 3.498h-2.142c-.357 0-.7-.142-.952-.396s-.395-.597-.395-.955V7.449zM10.29 19.053h8.082c.357 0 .7-.142.952-.396s.395-.597.395-.955a1.351 1.351 0 0 0-1.347-1.351H10.29c-.357 0-.7.142-.952.396s-.395.597-.395.955a1.351 1.351 0 0 0 1.347 1.351zm5.388 2.701H10.29c-.357 0-.7.142-.952.396s-.395.597-.395.955a1.351 1.351 0 0 0 1.347 1.351h5.388c.357 0 .7-.142.952-.396s.395-.597.395-.955a1.351 1.351 0 0 0-1.347-1.351zM10.29 13.65h1.347c.357 0 .7-.142.952-.396s.395-.597.395-.955a1.351 1.351 0 0 0-1.347-1.351H10.29c-.357 0-.7.142-.952.396s-.395.597-.395.955a1.351 1.351 0 0 0 1.347 1.351zm18.467 8.496a1.346 1.346 0 0 0-1.474-.296 1.346 1.346 0 0 0-.438.296l-4.431 4.457-1.738-1.756a1.355 1.355 0 0 0-1.475-.294 1.355 1.355 0 0 0-.439 2.212l2.694 2.701a1.346 1.346 0 0 0 1.474.296c.164-.069.313-.169.438-.296l5.388-5.403a1.351 1.351 0 0 0 0-1.918z"/></symbol><symbol id="icon-registration_3" viewBox="0 0 34 32"><path d="M30.4 2.701c0 1.117-.722 2.089-1.747 2.486V28.8H0l8.013-12.122a2.63 2.63 0 0 1-.399-1.369c0-1.495 1.272-2.702 2.848-2.702s2.848 1.207 2.848 2.702c0 .234-.038.45-.095.666l2.734 1.135a2.925 2.925 0 0 1 2.108-.901c.342 0 .665.072.968.162l6.798-11.545c-.684-.486-1.12-1.261-1.12-2.125 0-1.495 1.272-2.702 2.848-2.702.361 0 .684.072 1.006.18l.095-.162v.198c1.025.396 1.747 1.369 1.747 2.486zm-3.646 24.297V6.933l-6.247 10.609c.247.414.399.865.399 1.369 0 1.495-1.272 2.702-2.848 2.702s-2.848-1.207-2.848-2.702l.019-.126-3.095-1.297a2.946 2.946 0 0 1-1.671.522c-.342 0-.665-.072-.968-.18l-6.076 9.168h23.336z"/></symbol><symbol id="icon-menu_open" viewBox="0 0 32 32"><path d="M6.4 11.733V9.6h19.2v2.133H6.4zm0 5.334h19.2v-2.133H6.4v2.133zm0 5.333h19.2v-2.133H6.4V22.4z"/></symbol><symbol id="icon-menu_close" viewBox="0 0 32 32"><path d="M23.733 10.304 22.229 8.8l-5.963 5.963L10.303 8.8l-1.504 1.504 5.963 5.963-5.963 5.963 1.504 1.504 5.963-5.963 5.963 5.963 1.504-1.504-5.963-5.963 5.963-5.963z"/></symbol>
<symbol id="icon-icon-check" viewBox="0 0 32 32">
<path fill="none" stroke="#728fce" style="stroke: var(--color1, #728fce)" stroke-linejoin="round" stroke-linecap="round" stroke-miterlimit="4" stroke-width="2.9091" d="M10.182 16.727l4.364 4.364 7.273-8.727"></path>
<path fill="none" stroke="#728fce" style="stroke: var(--color1, #728fce)" stroke-linejoin="miter" stroke-linecap="butt" stroke-miterlimit="4" stroke-width="2.9091" d="M16 30.545c8.033 0 14.545-6.512 14.545-14.545s-6.512-14.545-14.545-14.545c-8.033 0-14.545 6.512-14.545 14.545s6.512 14.545 14.545 14.545z"></path>
</symbol>

<symbol id="icon-akar-icons_check-box-fill" viewBox="0 0 32 32">
<path fill="#728fce" style="fill: var(--color4, #728fce)" d="M9.333 2.667h13.333c1.768 0 3.464 0.702 4.714 1.953s1.953 2.946 1.953 4.714v13.333c0 1.768-0.702 3.464-1.953 4.714s-2.946 1.953-4.714 1.953h-13.333c-1.768 0-3.464-0.702-4.714-1.953s-1.953-2.946-1.953-4.714v-13.333c0-1.768 0.702-3.464 1.953-4.714s2.946-1.953 4.714-1.953zM20.973 14.245c0.12-0.128 0.213-0.278 0.275-0.442s0.091-0.338 0.085-0.514c-0.006-0.175-0.046-0.347-0.118-0.507s-0.175-0.303-0.303-0.423-0.278-0.213-0.442-0.275c-0.164-0.062-0.338-0.091-0.514-0.085s-0.347 0.046-0.507 0.118c-0.16 0.072-0.303 0.175-0.423 0.303l-4.111 4.387-2.031-1.804c-0.266-0.221-0.608-0.33-0.953-0.304s-0.666 0.185-0.896 0.444c-0.23 0.259-0.35 0.596-0.336 0.942s0.163 0.672 0.414 0.91l3 2.667c0.26 0.23 0.599 0.351 0.946 0.335s0.674-0.166 0.912-0.419l5.001-5.333z"></path>
</symbol>

<symbol id="icon-arrowD" viewBox="0 0 64 32">
<path stroke-linejoin="round" stroke-linecap="round" stroke-miterlimit="4" stroke-width="4" d="M2 4l30 24 30-24"></path>
</symbol>

<symbol id="icon-email" viewBox="0 0 32 32">
<path fill="#5cb3ff" style="fill: var(--color1, #5cb3ff)" d="M32 16c0 8.837-7.163 16-16 16s-16-7.163-16-16c0-8.837 7.163-16 16-16s16 7.163 16 16z"></path>
<path fill="#fff" style="fill: var(--color2, #fff)" d="M16 7.579c-4.648 0-8.421 3.773-8.421 8.421s3.773 8.421 8.421 8.421h4.211v-1.684h-4.211c-3.655 0-6.737-3.082-6.737-6.737s3.082-6.737 6.737-6.737c3.655 0 6.737 3.082 6.737 6.737v1.204c0 0.665-0.598 1.322-1.263 1.322s-1.263-0.657-1.263-1.322v-1.204c0-2.324-1.886-4.211-4.211-4.211s-4.211 1.886-4.211 4.211c0 2.324 1.886 4.211 4.211 4.211 1.162 0 2.223-0.472 2.981-1.238 0.547 0.749 1.491 1.238 2.493 1.238 1.659 0 2.947-1.347 2.947-3.006v-1.204c0-4.648-3.773-8.421-8.421-8.421zM16 18.526c-1.398 0-2.526-1.128-2.526-2.526s1.128-2.526 2.526-2.526c1.398 0 2.526 1.128 2.526 2.526s-1.128 2.526-2.526 2.526z"></path>
</symbol>

<symbol id="icon-location" viewBox="0 0 32 32">
<path fill="#5cb3ff" style="fill: var(--color1, #5cb3ff)" d="M32 16c0 8.837-7.163 16-16 16s-16-7.163-16-16c0-8.837 7.163-16 16-16s16 7.163 16 16z"></path>
<path fill="#fff" style="fill: var(--color2, #fff)" d="M16 20.211l0.842-1.684v-4.33c1.449-0.376 2.526-1.684 2.526-3.249 0-1.858-1.511-3.368-3.368-3.368s-3.368 1.511-3.368 3.368c0 1.565 1.077 2.872 2.526 3.249v4.33l0.842 1.684zM14.316 10.947c0-0.929 0.755-1.684 1.684-1.684s1.684 0.755 1.684 1.684c0 0.929-0.755 1.684-1.684 1.684s-1.684-0.755-1.684-1.684z"></path>
<path fill="#fff" style="fill: var(--color2, #fff)" d="M19.593 14.79l-0.449 1.624c2.182 0.603 3.592 1.763 3.592 2.955 0 1.593-2.766 3.368-6.737 3.368s-6.737-1.775-6.737-3.368c0-1.192 1.411-2.352 3.593-2.956l-0.449-1.624c-2.979 0.824-4.829 2.578-4.829 4.579 0 2.833 3.699 5.053 8.421 5.053s8.421-2.22 8.421-5.053c0-2.002-1.85-3.756-4.828-4.579z"></path>
</symbol>

<symbol id="icon-phone" viewBox="0 0 32 32">
<path fill="#5cb3ff" style="fill: var(--color1, #5cb3ff)" d="M32 16c0 8.837-7.163 16-16 16s-16-7.163-16-16c0-8.837 7.163-16 16-16s16 7.163 16 16z"></path>
<path fill="#fff" style="fill: var(--color2, #fff)" d="M18.299 19.126c-0.216-0.445-0.495-0.768-0.976-0.571l-0.95 0.353c-0.761 0.353-1.139 0-1.521-0.532l-1.71-3.89c-0.216-0.445-0.103-0.863 0.379-1.060l1.329-0.532c0.482-0.2 0.405-0.616 0.189-1.061l-1.134-2.121c-0.216-0.445-0.658-0.553-1.139-0.355-0.966 0.397-1.763 1.021-2.279 1.945-0.632 1.129-0.316 2.7-0.189 3.361s0.568 1.818 1.139 3.005c0.571 1.189 1.071 2.124 1.521 2.653 0.447 0.529 1.521 1.976 2.85 2.3 1.090 0.263 2.266 0.042 3.229-0.355 0.482-0.197 0.484-0.616 0.268-1.063l-1.005-2.076zM17.623 16c0.429 0 0.779-0.347 0.779-0.779 0-0.429-0.347-0.779-0.779-0.779-0.429 0-0.779 0.347-0.779 0.779 0 0.429 0.35 0.779 0.779 0.779zM19.697 14.442c-0.429 0-0.779 0.347-0.779 0.779 0 0.429 0.347 0.779 0.779 0.779 0.429 0 0.779-0.347 0.779-0.779-0.003-0.429-0.35-0.779-0.779-0.779zM21.77 14.442c-0.429 0-0.779 0.347-0.779 0.779 0 0.429 0.347 0.779 0.779 0.779 0.429 0 0.779-0.347 0.779-0.779-0.003-0.429-0.35-0.779-0.779-0.779z"></path>
</symbol>
<symbol id="icon-benefit7" viewBox="0 0 31 32">
<path fill="#fff" style="fill: var(--color1, #fff)" d="M24.080 14.838h-7.995l2.081-2.746c0.096 0.044 0.202 0.069 0.314 0.069 0.167 0 0.321-0.056 0.447-0.148l1.093 1.047c-0.039 0.092-0.062 0.193-0.062 0.299 0 0.42 0.342 0.762 0.762 0.762s0.762-0.342 0.762-0.762c0-0.165-0.054-0.316-0.143-0.441l1.86-2.232c0.098 0.046 0.206 0.074 0.321 0.074 0.42 0 0.762-0.342 0.762-0.762s-0.342-0.762-0.762-0.762c-0.42 0-0.762 0.342-0.762 0.762 0 0.159 0.049 0.306 0.132 0.428l-1.864 2.236c-0.094-0.041-0.198-0.066-0.307-0.066-0.167 0-0.321 0.056-0.446 0.147l-1.093-1.047c0.039-0.092 0.062-0.193 0.062-0.299 0-0.42-0.342-0.762-0.762-0.762s-0.762 0.342-0.762 0.762c0 0.162 0.052 0.311 0.138 0.435l-1.975 2.606v-7.59c1.815 0.045 3.552 0.688 4.957 1.828h-1.243v0.403h1.887v-1.882h-0.404v1.154c-1.527-1.234-3.424-1.916-5.398-1.916-4.743 0-8.602 3.858-8.602 8.602 0 0.111 0.090 0.202 0.202 0.202h8.198v7.987c-1.814-0.045-3.552-0.687-4.957-1.827h1.244v-0.403h-1.887v1.882h0.403v-1.155c1.527 1.234 3.426 1.916 5.398 1.916 4.743 0 8.602-3.859 8.602-8.602 0-0.111-0.090-0.202-0.202-0.202zM15.881 19.442h3.166c-0.677 2.169-1.836 3.638-3.166 3.776v-3.776zM15.881 19.038v-3.797h3.792c-0.016 1.376-0.197 2.668-0.506 3.797h-3.286zM23.52 9.642c0.198 0 0.358 0.161 0.358 0.358s-0.161 0.358-0.358 0.358c-0.198 0-0.358-0.161-0.358-0.358s0.161-0.358 0.358-0.358zM20.72 13.002c0.198 0 0.358 0.161 0.358 0.358s-0.161 0.358-0.358 0.358c-0.198 0-0.358-0.161-0.358-0.358s0.161-0.358 0.358-0.358zM18.48 11.042c0.198 0 0.358 0.161 0.358 0.358s-0.161 0.358-0.358 0.358c-0.198 0-0.358-0.161-0.358-0.358s0.161-0.358 0.358-0.358zM15.478 10.638h-3.166c0.677-2.169 1.836-3.639 3.166-3.776v3.776zM14.135 6.996c-0.937 0.69-1.721 1.984-2.229 3.642h-3.13c1.192-1.863 3.112-3.211 5.36-3.642zM8.526 11.042h3.26c-0.307 1.14-0.486 2.429-0.502 3.797h-3.8c0.034-1.376 0.409-2.668 1.042-3.797zM11.687 14.838c0.016-1.376 0.197-2.668 0.506-3.797h3.286v3.797h-3.792zM17.225 23.084c0.937-0.69 1.721-1.984 2.229-3.642h3.13c-1.192 1.863-3.112 3.211-5.359 3.642zM22.834 19.038h-3.26c0.307-1.14 0.486-2.429 0.502-3.797h3.8c-0.034 1.376-0.409 2.668-1.042 3.797zM14.761 19.52v-3.36c0-0.111-0.090-0.202-0.202-0.202h-6.72c-0.111 0-0.202 0.090-0.202 0.202v3.36c0 0.111 0.090 0.202 0.202 0.202h6.72c0.111 0 0.202-0.090 0.202-0.202zM13.259 19.318h-4.118c-0.088-0.567-0.533-1.012-1.1-1.1v-0.757c0.567-0.088 1.012-0.533 1.1-1.1h4.118c0.088 0.567 0.533 1.012 1.1 1.1v0.757c-0.566 0.088-1.012 0.533-1.099 1.1zM14.358 17.054c-0.344-0.078-0.615-0.348-0.693-0.693h0.693v0.693zM8.734 16.362c-0.078 0.344-0.349 0.615-0.693 0.693v-0.693h0.693zM8.041 18.626c0.344 0.078 0.615 0.348 0.693 0.693h-0.693v-0.693zM13.666 19.318c0.078-0.344 0.349-0.615 0.693-0.693v0.693h-0.693zM11.2 17.078c-0.42 0-0.762 0.342-0.762 0.762s0.342 0.762 0.762 0.762c0.42 0 0.762-0.342 0.762-0.762s-0.342-0.762-0.762-0.762zM11.2 18.198c-0.198 0-0.358-0.161-0.358-0.358s0.161-0.358 0.358-0.358c0.198 0 0.358 0.161 0.358 0.358s-0.161 0.358-0.358 0.358zM8.96 17.638h0.56v0.404h-0.56v-0.404zM12.88 17.638h0.56v0.404h-0.56v-0.404z"></path>
</symbol>
<symbol id="icon-benefit8" viewBox="0 0 32 32">
<path fill="#fff" style="fill: var(--color1, #fff)" d="M19.61 23.68c-1.891 0-3.43-1.539-3.43-3.43v-3.75c0-0.099 0.081-0.18 0.18-0.18h6.5c0.1 0 0.18 0.081 0.18 0.18v3.75c0 1.891-1.539 3.43-3.43 3.43zM16.54 16.68v3.57c0 1.693 1.377 3.070 3.070 3.070s3.070-1.377 3.070-3.070v-3.57h-6.14zM15.36 23.68h-7.5c-0.099 0-0.18-0.081-0.18-0.18v-15c0-0.1 0.080-0.18 0.18-0.18h9c0.048 0 0.094 0.019 0.128 0.053l3 3c0.034 0.034 0.052 0.079 0.052 0.127v3.5h-0.36v-3.32h-2.82c-0.099 0-0.18-0.081-0.18-0.18v-2.82h-8.64v14.64h7.32v0.36zM17.040 11.32h2.386l-2.386-2.386v2.386zM14.86 21.68h-5v-0.36h5v0.36zM14.86 19.68h-5v-0.36h5v0.36zM14.86 17.68h-5v-0.36h5v0.36zM9.86 15.68v-0.36h5v0.36h-5zM17.86 13.68h-8v-0.36h8v0.36z"></path>
</symbol>
<symbol id="icon-benefit9" viewBox="0 0 32 32">
<path fill="#fff" style="fill: var(--color1, #fff)" d="M24.12 10.332c0-0.14-0.14-0.252-0.28-0.252-5.040 0-6.16-2.324-6.188-2.352-0.028-0.112-0.14-0.168-0.252-0.168h-2.8c-0.112 0-0.196 0.056-0.252 0.168-0.028 0.028-1.148 2.352-6.188 2.352-0.14 0-0.28 0.112-0.28 0.252 0 0.112-0.476 11.172 8.036 13.44 0.028 0 0.056 0 0.084 0s0.056 0 0.084 0c8.512-2.24 8.036-13.328 8.036-13.44zM16 23.24c-7.28-2.016-7.588-10.948-7.56-12.6 4.48-0.084 5.964-1.932 6.328-2.52h2.464c0.364 0.588 1.848 2.436 6.328 2.52 0.028 1.652-0.28 10.584-7.56 12.6z"></path>
<path fill="#fff" style="fill: var(--color1, #fff)" d="M16.224 8.792c-0.056-0.084-0.14-0.112-0.224-0.112s-0.168 0.028-0.224 0.112c0 0-2.016 2.408-6.216 2.408-0.14 0-0.28 0.112-0.28 0.252 0 0.084-0.392 9.044 6.636 10.92 0.028 0 0.056 0 0.084 0s0.056 0 0.084 0c7.028-1.848 6.636-10.808 6.636-10.92 0-0.14-0.14-0.252-0.28-0.252-4.172 0-6.216-2.408-6.216-2.408zM16 21.84c-5.88-1.624-6.16-8.624-6.16-10.080 3.528-0.084 5.544-1.764 6.16-2.38 0.644 0.644 2.632 2.296 6.16 2.38 0 1.456-0.28 8.456-6.16 10.080z"></path>
<path fill="#fff" style="fill: var(--color1, #fff)" d="M16 15.96c-0.784 0-1.4 0.616-1.4 1.4s0.616 1.4 1.4 1.4c0.784 0 1.4-0.616 1.4-1.4s-0.616-1.4-1.4-1.4zM16 18.2c-0.476 0-0.84-0.364-0.84-0.84s0.364-0.84 0.84-0.84c0.476 0 0.84 0.364 0.84 0.84s-0.364 0.84-0.84 0.84z"></path>
<path fill="#fff" style="fill: var(--color1, #fff)" d="M16 14.84c-0.756 0-1.456 0.364-1.876 1.008-0.084 0.14-0.056 0.308 0.084 0.392s0.308 0.056 0.392-0.084c0.308-0.476 0.84-0.756 1.4-0.756s1.092 0.28 1.4 0.756c0.056 0.084 0.14 0.112 0.224 0.112 0.056 0 0.112-0.028 0.168-0.056 0.14-0.084 0.168-0.252 0.084-0.392-0.42-0.616-1.12-0.98-1.876-0.98z"></path>
<path fill="#fff" style="fill: var(--color1, #fff)" d="M16 13.72c-1.064 0-2.016 0.476-2.66 1.316-0.084 0.112-0.084 0.308 0.056 0.392 0.112 0.084 0.308 0.084 0.392-0.056 0.532-0.7 1.344-1.092 2.212-1.092s1.68 0.392 2.212 1.092c0.056 0.084 0.14 0.112 0.224 0.112 0.056 0 0.112-0.028 0.168-0.056 0.112-0.084 0.14-0.28 0.056-0.392-0.644-0.84-1.596-1.316-2.66-1.316z"></path>
<path fill="#fff" style="fill: var(--color1, #fff)" d="M12.556 14.224c-0.112 0.112-0.084 0.308 0.028 0.392 0.112 0.112 0.308 0.084 0.392-0.028 0.756-0.896 1.848-1.428 3.024-1.428s2.268 0.532 3.024 1.428c0.056 0.056 0.14 0.112 0.224 0.112 0.056 0 0.14-0.028 0.168-0.056 0.112-0.112 0.14-0.28 0.028-0.392-0.84-1.064-2.1-1.652-3.444-1.652s-2.604 0.588-3.444 1.624z"></path>
</symbol>
</defs>
</svg>
