<svg width="182" height="648" viewBox="0 0 182 648" fill="none" xmlns="http://www.w3.org/2000/svg">
<circle cx="116.5" cy="55.5" r="55.5" fill="#5CB3FF"/>
<g clip-path="url(#clip0_540_11637)">
<path d="M105.266 40.2891V50.9379C106.522 50.4911 107.707 50.6717 108.701 51.3371L113.973 55.2875C114.935 55.9233 115.578 57.1268 115.578 58.4219C115.578 59.7173 114.935 60.9208 113.856 61.6395L108.817 65.4238C107.61 66.2375 106.451 66.3268 105.266 65.9055C105.266 66.3094 105.266 74.2478 105.266 73.9766C105.266 74.6893 105.842 75.2657 106.555 75.2657H118.156V48.0234C118.156 46.7307 118.816 45.5098 119.89 44.7984L127.621 39H106.555C105.842 39 105.266 39.5767 105.266 40.2891Z" fill="white"/>
<path d="M134.891 40.289C134.891 39.8248 134.641 39.3968 134.237 39.1675C133.833 38.9385 133.337 38.9446 132.938 39.1839L122.625 46.9183C122.238 47.151 122 47.5702 122 48.0234V81.711C122 82.1756 122.249 82.6036 122.653 82.8325C123.056 83.0611 123.553 83.0557 123.952 82.8164L134.265 75.082C134.653 74.849 134.891 74.4298 134.891 73.9766V40.289ZM125.87 64.8672C125.158 64.8672 124.58 64.2901 124.58 63.5781C124.58 62.8661 125.158 62.2891 125.87 62.2891C126.582 62.2891 127.159 62.8661 127.159 63.5781C127.159 64.2901 126.582 64.8672 125.87 64.8672Z" fill="white"/>
<path d="M93.6638 60.9993H105.265V62.2883C105.265 62.7644 105.527 63.2011 105.947 63.4253C106.36 63.6469 106.87 63.6274 107.269 63.3609L112.426 59.4937C112.785 59.2547 113 58.8518 113 58.4215C113 57.9908 112.785 57.588 112.426 57.3489L107.269 53.4807C106.875 53.2179 106.364 53.1937 105.947 53.4166C105.527 53.6409 105.265 54.0776 105.265 54.5536V55.8433H93.6638C92.9511 55.8433 92.3748 56.4197 92.3748 57.1324V59.7105C92.3748 60.4229 92.9511 60.9993 93.6638 60.9993Z" fill="white"/>
</g>
<circle cx="116.5" cy="188.5" r="55.5" fill="#5CB3FF"/>
<path d="M103.143 176.251C102.807 175.112 102.484 173.972 102.242 172.88C100.647 171.937 99.5626 170.22 99.5626 168.236C99.5626 165.251 101.99 162.826 104.972 162.826C107.955 162.826 110.382 165.253 110.382 168.236C110.382 168.647 110.327 169.042 110.241 169.426C110.758 170.566 111.177 171.849 111.543 173.153C112.574 171.778 113.208 170.088 113.208 168.236C113.208 163.686 109.523 160 104.972 160C100.422 160 96.7383 163.686 96.7383 168.236C96.7383 172.155 99.4785 175.418 103.143 176.251Z" fill="white"/>
<path d="M97.4537 195.749C99.4836 193.555 101.762 194.414 104.811 194.878C107.431 195.281 110.011 194.546 109.839 193.131C109.568 190.841 109.186 189.818 108.317 186.852C107.624 184.494 106.308 180.243 105.111 176.179C103.507 170.743 103.043 168.218 105.178 167.588C107.479 166.918 108.799 170.187 109.994 174.721C111.356 179.88 112.072 182.158 112.473 182.038C113.179 181.836 112.213 179.628 114.061 179.084C116.372 178.412 116.819 180.218 117.466 180.037C118.114 179.842 117.894 178.013 119.737 177.474C121.589 176.939 122.519 179.22 123.283 178.992C124.039 178.769 124.022 177.946 125.164 177.619C126.308 177.279 130.612 179.206 133.075 187.622C136.167 198.203 132.684 200.17 133.74 203.752L119.939 209C118.822 206.313 115.362 206.114 112.301 204.401C109.217 202.665 107.122 199.284 99.0845 199.448C96.0616 199.509 96.2048 197.099 97.4537 195.749Z" fill="white"/>
<circle cx="117.5" cy="322.5" r="55.5" fill="#5CB3FF"/>
<path d="M125.504 309.69H134.409L125.504 300.704V309.69Z" fill="white"/>
<path d="M135.113 312.092H123.102V300H103.883V341H135.113V312.092ZM118.297 319.299H120.699V321.701H118.297V319.299ZM112.291 314.494C112.283 314.49 108.688 314.342 108.688 310.891C108.688 309.327 109.695 308.007 111.09 307.51V304.885H113.492V307.51C114.887 308.007 115.895 309.328 115.895 310.891H113.492C113.492 310.228 112.954 309.689 112.291 309.689C111.628 309.689 111.09 310.228 111.09 310.891C111.09 311.553 111.628 312.092 112.291 312.092C112.299 312.096 115.895 312.244 115.895 315.695C115.895 317.259 114.887 318.579 113.492 319.076V321.701H111.09V319.076C109.695 318.578 108.688 317.258 108.688 315.695H111.09C111.09 316.358 111.628 316.896 112.291 316.896C112.954 316.896 113.492 316.358 113.492 315.695C113.492 315.033 112.954 314.494 112.291 314.494ZM130.309 336.115H108.688V333.713H130.309V336.115ZM130.309 331.311H108.688V328.908H130.309V331.311ZM130.309 326.506H108.688V324.104H130.309V326.506ZM130.309 321.701H123.102V319.299H130.309V321.701Z" fill="white"/>
<circle cx="117.5" cy="457.5" r="55.5" fill="#5CB3FF"/>
<path d="M104.15 442.175C104.15 441.359 104.474 440.577 105.051 440.001C105.627 439.424 106.409 439.1 107.225 439.1H121.575C122.391 439.1 123.173 439.424 123.749 440.001C124.326 440.577 124.65 441.359 124.65 442.175V445.851L131.349 452.55C132.31 453.511 132.85 454.814 132.85 456.172V470.875C132.85 471.147 132.742 471.408 132.55 471.6C132.358 471.792 132.097 471.9 131.825 471.9C131.553 471.9 131.292 471.792 131.1 471.6C130.908 471.408 130.8 471.147 130.8 470.875V456.172C130.799 455.357 130.475 454.575 129.898 453.999L124.65 448.751V455.076L126.401 456.824C126.593 457.017 126.701 457.278 126.701 457.55C126.7 457.822 126.592 458.082 126.4 458.275C126.304 458.37 126.191 458.445 126.067 458.497C125.942 458.548 125.809 458.575 125.674 458.575C125.402 458.574 125.142 458.466 124.949 458.274L118.799 452.124C117.934 451.259 117.452 451.295 117.241 451.349C116.887 451.435 116.573 451.718 116.134 452.14C115.929 452.337 115.843 452.53 115.884 452.817C115.938 453.175 116.218 453.817 117.176 454.774L119.662 457.261L120.249 457.849C120.344 457.944 120.42 458.058 120.472 458.182C120.523 458.307 120.55 458.44 120.55 458.575C120.55 460.162 120.562 461.759 121.001 462.964C121.21 463.54 121.495 463.96 121.87 464.241C122.237 464.516 122.778 464.725 123.625 464.725C123.897 464.725 124.158 464.833 124.35 465.025C124.542 465.217 124.65 465.478 124.65 465.75V468.825C124.65 469.641 124.326 470.423 123.749 470.999C123.173 471.576 122.391 471.9 121.575 471.9H107.225C106.409 471.9 105.627 471.576 105.051 470.999C104.474 470.423 104.15 469.641 104.15 468.825V442.175ZM114.4 450.375C113.539 450.375 112.692 450.592 111.937 451.005C111.182 451.419 110.543 452.016 110.08 452.741C109.617 453.467 109.344 454.297 109.286 455.156C109.228 456.015 109.388 456.875 109.75 457.656C110.112 458.437 110.665 459.114 111.358 459.625C112.051 460.136 112.861 460.464 113.714 460.579C114.567 460.694 115.436 460.592 116.239 460.283C117.043 459.974 117.755 459.468 118.311 458.811L118.209 458.708L115.724 456.224C114.632 455.131 114.002 454.104 113.857 453.116C113.786 452.667 113.828 452.207 113.978 451.779C114.128 451.35 114.382 450.965 114.718 450.658L114.787 450.59L114.98 450.406C114.788 450.385 114.594 450.374 114.4 450.375ZM118.5 468.825V469.85H120.55V468.825C120.55 468.553 120.658 468.292 120.85 468.1C121.042 467.908 121.303 467.8 121.575 467.8H122.6V466.693C121.896 466.586 121.228 466.311 120.653 465.891C120.028 466.088 119.483 466.478 119.096 467.006C118.709 467.533 118.5 468.171 118.5 468.825ZM106.2 445.25H107.225C108.041 445.25 108.823 444.926 109.399 444.349C109.976 443.773 110.3 442.991 110.3 442.175V441.15H108.25V442.175C108.25 442.447 108.142 442.708 107.95 442.9C107.758 443.092 107.497 443.2 107.225 443.2H106.2V445.25ZM118.5 442.175C118.5 442.991 118.824 443.773 119.401 444.349C119.977 444.926 120.759 445.25 121.575 445.25H122.6V443.2H121.575C121.303 443.2 121.042 443.092 120.85 442.9C120.658 442.708 120.55 442.447 120.55 442.175V441.15H118.5V442.175ZM110.3 468.825C110.3 468.009 109.976 467.227 109.399 466.651C108.823 466.074 108.041 465.75 107.225 465.75H106.2V467.8H107.225C107.497 467.8 107.758 467.908 107.95 468.1C108.142 468.292 108.25 468.553 108.25 468.825V469.85H110.3V468.825Z" fill="white"/>
<circle cx="117.5" cy="592.5" r="55.5" fill="#5CB3FF"/>
<g clip-path="url(#clip1_540_11637)">
<g clip-path="url(#clip2_540_11637)">
<path fill-rule="evenodd" clip-rule="evenodd" d="M124.951 609.524C125.096 609.798 125.314 610.027 125.58 610.187C125.846 610.346 126.151 610.431 126.461 610.43H135.032C135.391 610.43 135.74 610.316 136.031 610.106C136.322 609.896 136.539 609.6 136.652 609.259L138.431 604.014L138.125 596.123C137.977 595.696 137.758 595.295 137.479 594.939C137.105 594.493 136.795 594.399 136.447 594.445C136.392 594.454 136.392 594.454 136.265 594.463C136.399 594.463 136.187 594.88 135.989 595.67L134.875 595.431C135.135 593.932 135.135 592.83 134.932 592.222C134.563 591.516 133.513 591.333 133.082 592.144C132.83 592.873 132.702 593.739 132.702 594.736L131.563 594.759C131.472 592.534 131.249 591.176 130.987 590.844C130.946 590.793 129.709 590.775 129.705 590.782C129.429 591.162 129.158 592.823 128.982 595.565L127.844 595.529V587.493C127.844 586.247 127.101 585.605 126.058 585.671C125.024 585.735 124.224 586.473 124.24 587.477L124.525 597.483C124.531 597.713 124.458 597.939 124.319 598.122C124.18 598.305 123.982 598.436 123.759 598.492C123.536 598.548 123.3 598.527 123.091 598.431C122.881 598.336 122.711 598.172 122.607 597.966L122.543 597.843C122.34 597.438 122.028 597.098 121.642 596.859C121.256 596.621 120.812 596.495 120.359 596.495C120.247 596.495 120.138 596.523 120.039 596.576C119.941 596.628 119.857 596.704 119.795 596.797C119.732 596.889 119.694 596.996 119.682 597.107C119.671 597.218 119.686 597.33 119.728 597.433C120.728 599.902 121.734 602.369 122.744 604.834C123.391 606.405 124.126 607.97 124.953 609.524H124.951Z" fill="white" stroke="white" stroke-width="1.16667"/>
<path fill-rule="evenodd" clip-rule="evenodd" d="M124.732 570.933C125.287 570.4 126.027 570.1 126.797 570.097C127.567 570.095 128.309 570.389 128.868 570.918C129.427 571.448 129.761 572.173 129.8 572.942C129.838 573.712 129.579 574.466 129.076 575.049L111.136 593.985L111.104 594.012L111.077 594.042C110.522 594.598 109.77 594.914 108.984 594.919C108.198 594.925 107.441 594.62 106.879 594.071L106.84 594.032L98.877 586.072C98.5991 585.794 98.3787 585.465 98.2282 585.103C98.0778 584.74 98.0004 584.351 98.0004 583.959C98.0004 583.566 98.0778 583.178 98.2282 582.815C98.3787 582.453 98.5991 582.123 98.877 581.846C99.1542 581.568 99.4835 581.348 99.846 581.197C100.209 581.047 100.597 580.97 100.99 580.97C101.382 580.97 101.771 581.047 102.133 581.197C102.496 581.348 102.825 581.568 103.102 581.846L108.904 587.646L124.732 570.933Z" fill="white"/>
</g>
</g>
<circle cx="159" cy="552" r="21.5" fill="white" stroke="white" stroke-width="3"/>
<path d="M158.68 561.2C157.693 561.2 156.727 561.06 155.78 560.78C154.847 560.487 154.06 560.087 153.42 559.58L154.52 557.56C155.027 557.973 155.64 558.307 156.36 558.56C157.093 558.813 157.853 558.94 158.64 558.94C159.56 558.94 160.28 558.747 160.8 558.36C161.333 557.973 161.6 557.453 161.6 556.8C161.6 556.36 161.487 555.973 161.26 555.64C161.047 555.307 160.66 555.053 160.1 554.88C159.553 554.707 158.8 554.62 157.84 554.62H154.46L155.18 547H163.4V549.18H156.14L157.5 547.94L156.96 553.64L155.6 552.42H158.42C159.807 552.42 160.92 552.607 161.76 552.98C162.613 553.34 163.233 553.847 163.62 554.5C164.02 555.14 164.22 555.873 164.22 556.7C164.22 557.513 164.02 558.26 163.62 558.94C163.22 559.62 162.607 560.167 161.78 560.58C160.967 560.993 159.933 561.2 158.68 561.2Z" fill="#101010"/>
<circle cx="158" cy="23" r="23" fill="white"/>
<path d="M157.311 32V19L158.451 20.18H154.351V18H159.911V32H157.311Z" fill="#101010"/>
<circle cx="158" cy="157" r="23" fill="white"/>
<path d="M152.88 166V164.26L158.44 158.98C158.906 158.54 159.253 158.153 159.48 157.82C159.706 157.487 159.853 157.18 159.92 156.9C160 156.607 160.04 156.333 160.04 156.08C160.04 155.44 159.82 154.947 159.38 154.6C158.94 154.24 158.293 154.06 157.44 154.06C156.76 154.06 156.14 154.18 155.58 154.42C155.033 154.66 154.56 155.027 154.16 155.52L152.34 154.12C152.886 153.387 153.62 152.82 154.54 152.42C155.473 152.007 156.513 151.8 157.66 151.8C158.673 151.8 159.553 151.967 160.3 152.3C161.06 152.62 161.64 153.08 162.04 153.68C162.453 154.28 162.66 154.993 162.66 155.82C162.66 156.273 162.6 156.727 162.48 157.18C162.36 157.62 162.133 158.087 161.8 158.58C161.466 159.073 160.98 159.627 160.34 160.24L155.56 164.78L155.02 163.8H163.2V166H152.88Z" fill="#101010"/>
<circle cx="158" cy="288" r="21.5" fill="white" stroke="white" stroke-width="3"/>
<path d="M157.46 297.2C156.473 297.2 155.506 297.06 154.56 296.78C153.626 296.487 152.84 296.087 152.2 295.58L153.32 293.56C153.826 293.973 154.44 294.307 155.16 294.56C155.88 294.813 156.633 294.94 157.42 294.94C158.353 294.94 159.08 294.753 159.6 294.38C160.12 293.993 160.38 293.473 160.38 292.82C160.38 292.18 160.14 291.673 159.66 291.3C159.18 290.927 158.406 290.74 157.34 290.74H156.06V288.96L160.06 284.2L160.4 285.18H152.88V283H162.42V284.74L158.42 289.5L157.06 288.7H157.84C159.56 288.7 160.846 289.087 161.7 289.86C162.566 290.62 163 291.6 163 292.8C163 293.587 162.8 294.313 162.4 294.98C162 295.647 161.386 296.187 160.56 296.6C159.746 297 158.713 297.2 157.46 297.2Z" fill="#101010"/>
<circle cx="158" cy="422" r="21.5" fill="white" stroke="white" stroke-width="3"/>
<path d="M151.893 427.82V426.02L158.793 417H161.573L154.773 426.02L153.473 425.62H164.573V427.82H151.893ZM159.573 431V427.82L159.653 425.62V422.8H162.093V431H159.573Z" fill="#101010"/>
<line x1="46" y1="60.5" x2="-4.37114e-08" y2="60.5" stroke="#728FCE"/>
<line x1="46" y1="188.5" x2="-4.37114e-08" y2="188.5" stroke="#728FCE"/>
<line x1="46" y1="320.5" x2="-4.37114e-08" y2="320.5" stroke="#728FCE"/>
<line x1="46" y1="458.5" x2="-4.37114e-08" y2="458.5" stroke="#728FCE"/>
<line x1="46" y1="591.5" x2="-4.37114e-08" y2="591.5" stroke="#728FCE"/>
<line x1="0.5" y1="60" x2="0.500023" y2="591" stroke="#728FCE"/>
<defs>
<clipPath id="clip0_540_11637">
<rect width="44" height="44" fill="white" transform="translate(91 39)"/>
</clipPath>
<clipPath id="clip1_540_11637">
<rect width="41" height="41" fill="white" transform="translate(98 570)"/>
</clipPath>
<clipPath id="clip2_540_11637">
<rect width="41" height="41" fill="white" transform="translate(98 570)"/>
</clipPath>
</defs>
</svg>
