<svg width="110" height="104" fill="none" xmlns="http://www.w3.org/2000/svg"><path opacity=".4" d="M55 103c29.768 0 54-22.78 54-51 0-28.221-24.232-51-54-51S1 23.779 1 52c0 28.22 24.232 51 54 51z" stroke="#6C8CD0" stroke-width="2"/><ellipse cx="54.5" cy="51.999" rx="43.5" ry="41" fill="#5CB3FF"/><path d="M55.947 54.98v3.781a11.874 11.874 0 0 0-5.352-.518 11.683 11.683 0 0 0-5.002 1.89 11.025 11.025 0 0 0-3.532 3.875A10.465 10.465 0 0 0 40.79 69L37 68.998c0-2.21.529-4.39 1.547-6.375a14.633 14.633 0 0 1 4.327-5.072 15.495 15.495 0 0 1 6.224-2.735 15.853 15.853 0 0 1 6.85.161v.002zm-3.79-2.266c-6.28 0-11.367-4.859-11.367-10.857C40.79 35.858 45.876 31 52.157 31c6.28 0 11.368 4.858 11.368 10.857 0 5.998-5.087 10.857-11.368 10.857zm0-3.62c4.188 0 7.58-3.238 7.58-7.237 0-4-3.392-7.238-7.58-7.238-4.186 0-7.578 3.239-7.578 7.238 0 3.999 3.392 7.238 7.579 7.238zm11.37 10.858v-5.429h3.789v5.429H73v3.619h-5.684v5.428h-3.79v-5.428h-5.684v-3.62h5.684z" fill="#051761"/></svg>