<svg width="110" height="104" fill="none" xmlns="http://www.w3.org/2000/svg"><ellipse cx="55.5" cy="51.999" rx="43.5" ry="41" fill="#5CB3FF"/><path opacity=".4" d="M55 103c29.768 0 54-22.78 54-51 0-28.221-24.232-51-54-51S1 23.779 1 52c0 28.22 24.232 51 54 51z" stroke="#5CB3FF" stroke-width="2"/><path d="M73 34.377c0 1.395-.902 2.611-2.184 3.107v29.515H35l10.016-15.151a3.29 3.29 0 0 1-.498-1.712c0-1.868 1.59-3.377 3.56-3.377s3.56 1.509 3.56 3.377c0 .293-.047.563-.118.833l3.417 1.419a3.653 3.653 0 0 1 2.635-1.126c.427 0 .83.09 1.21.203l8.498-14.432c-.855-.608-1.4-1.576-1.4-2.656 0-1.869 1.59-3.378 3.56-3.378.45 0 .854.09 1.258.226l.118-.203v.248c1.282.495 2.184 1.71 2.184 3.107zm-4.557 30.371v-25.08l-7.809 13.26c.309.518.498 1.08.498 1.711 0 1.869-1.59 3.377-3.56 3.377s-3.56-1.508-3.56-3.377l.024-.157-3.87-1.621a3.682 3.682 0 0 1-2.088.653c-.427 0-.83-.09-1.21-.226l-7.596 11.46h29.17z" fill="#051761"/></svg>