<svg width="110" height="104" fill="none" xmlns="http://www.w3.org/2000/svg"><ellipse cx="54.5" cy="51.999" rx="43.5" ry="41" fill="#5CB3FF"/><path opacity=".4" d="M55 103c29.768 0 54-22.78 54-51 0-28.221-24.232-51-54-51S1 23.779 1 52c0 28.22 24.232 51 54 51z" stroke="#6C8CD0" stroke-width="2"/><path d="M57.047 69.19H45.683c-.503 0-.985-.2-1.34-.557a1.902 1.902 0 0 1-.555-1.343V40.698c0-.504.2-.987.555-1.343a1.891 1.891 0 0 1 1.34-.557h9.47v5.699c0 1.511.599 2.96 1.665 4.03a5.675 5.675 0 0 0 4.018 1.668h5.682v9.497c0 .504.2.987.555 1.343a1.891 1.891 0 0 0 3.234-1.343V48.182a2.495 2.495 0 0 0-.114-.513v-.171a2.036 2.036 0 0 0-.36-.532L58.468 35.569a2.026 2.026 0 0 0-.53-.36.548.548 0 0 0-.19 0 2.082 2.082 0 0 0-.587-.21H45.682c-1.507 0-2.952.6-4.018 1.67A5.707 5.707 0 0 0 40 40.698V67.29c0 1.511.599 2.96 1.664 4.03a5.674 5.674 0 0 0 4.018 1.669h11.365c.503 0 .985-.2 1.34-.557a1.902 1.902 0 0 0 0-2.686 1.891 1.891 0 0 0-1.34-.556zm1.895-27.713 4.905 4.92h-3.011c-.503 0-.984-.2-1.34-.557a1.902 1.902 0 0 1-.554-1.343v-3.02zM49.47 57.793h11.365c.502 0 .984-.2 1.34-.556a1.902 1.902 0 0 0-1.34-3.243H49.47c-.503 0-.984.2-1.34.556a1.903 1.903 0 0 0 0 2.687c.356.356.837.556 1.34.556zm7.576 3.799h-7.576c-.503 0-.984.2-1.34.556a1.903 1.903 0 0 0 0 2.686c.356.357.837.557 1.34.557h7.576c.503 0 .985-.2 1.34-.557a1.902 1.902 0 0 0-1.34-3.242zm-7.576-11.397h1.894c.502 0 .984-.2 1.34-.556a1.902 1.902 0 0 0-1.34-3.243h-1.894c-.503 0-.984.2-1.34.556a1.903 1.903 0 0 0 0 2.687c.356.356.837.556 1.34.556zM75.44 62.143a1.894 1.894 0 0 0-2.69 0l-6.232 6.268-2.443-2.47a1.903 1.903 0 0 0-2.073-.413 1.902 1.902 0 0 0-1.174 1.762 1.912 1.912 0 0 0 .557 1.349l3.788 3.799a1.894 1.894 0 0 0 2.69 0l7.577-7.598a1.9 1.9 0 0 0 .414-2.08 1.9 1.9 0 0 0-.414-.617z" fill="#051761"/></svg>